<svg width="398" height="357" viewBox="0 0 398 357" fill="none" xmlns="http://www.w3.org/2000/svg">
<path d="M175.617 200.259C195.007 194.39 212.726 184.001 227.327 169.963C226.885 165.448 221.819 163.532 218.532 161.288C205.883 152.008 219.494 142.191 225.538 162.238L225.537 162.23C225.774 163.052 226.17 163.819 226.695 164.491C227.677 165.625 228.483 166.9 229.091 168.272C233.691 163.804 237.988 159.033 241.955 153.986C244.151 146.747 241.587 137.902 233.549 135.939C230.823 139.352 225.996 134.426 228.282 131.216L228.274 131.217C229.196 129.676 231.13 129.075 232.767 129.822C234.396 130.571 235.206 132.429 234.642 134.129C237.619 135.063 240.214 136.94 242.03 139.489C241.16 135.008 239.471 130.727 237.04 126.868C234.982 127.707 232.627 126.87 231.562 124.93C230.488 122.982 231.04 120.548 232.841 119.254C234.641 117.96 237.13 118.223 238.627 119.857C240.117 121.499 240.151 123.996 238.705 125.677C240.593 128.655 242.063 131.877 243.077 135.251C243.748 133.71 244.748 132.338 245.999 131.225C244.561 129.826 244.36 127.581 245.533 125.949C246.706 124.316 248.895 123.79 250.679 124.713C252.462 125.629 253.307 127.716 252.66 129.618C252.012 131.521 250.068 132.662 248.094 132.299L247.807 132.357C241.748 136.755 245.716 144.441 244.547 150.593C273.245 115.235 246.891 118.979 243.401 86.1939L243.402 86.2013C243.252 84.1913 244.323 82.2861 246.119 81.3644C247.907 80.4436 250.082 80.6858 251.626 81.9783C258.251 86.4971 258.452 100.567 256.592 109.09L256.593 109.097C256.177 111.124 256.419 113.241 257.279 115.13C258.787 118.4 259.709 121.917 260.013 125.504C263.743 118.277 267.079 110.844 270.142 103.315L270.15 103.314C269.76 99.1028 268.356 95.0515 266.035 91.5169C262.891 91.3368 260.423 86.6714 264.106 85.1855L264.113 85.1844C265.563 84.5345 267.272 85.0059 268.181 86.3104C269.089 87.615 268.946 89.3883 267.827 90.5196C269.632 93.2973 270.922 96.3874 271.629 99.626C274.058 93.4821 276.23 87.3921 278.466 81.171C277.668 76.2095 274.979 71.1755 270.165 69.0695L270.173 69.0759C269.551 70.5875 267.954 71.4645 266.347 71.1673C264.739 70.8627 263.56 69.4775 263.533 67.8357C263.54 66.0144 264.896 64.4837 266.697 64.2586C268.505 64.025 270.201 65.1659 270.662 66.9244C271.995 67.5736 273.233 68.3889 274.356 69.3578C274.43 66.9198 273.617 64.5316 272.06 62.6495C268.346 63.1693 265.409 57.6036 269.115 55.6137C273.366 54.0729 276.195 57.4628 273.57 61.2925L273.569 61.2851C275.864 64.0425 276.835 67.6811 276.206 71.2187C277.806 73.0867 279.006 75.2728 279.716 77.6234C286.101 64.2344 282.564 55.1788 271.724 45.7652C270.248 44.3714 268.406 42.9112 268.302 40.7047L268.303 40.7121C268.236 39.8577 268.503 39.0136 269.057 38.3616C269.612 37.7096 270.401 37.3104 271.248 37.2439C276.855 37.1603 279.932 48.7572 281.043 53.2316L281.051 53.2305C282.469 55.3004 283.61 57.5483 284.444 59.9182C285.399 54.4054 285.341 48.7713 284.274 43.2815C261.924 18.3788 283.564 19.2551 286.62 37.0363C288.174 35.0057 290.737 31.7235 293.615 33.2634C297.85 35.8583 290.105 40.8511 287.127 42.6863L287.129 42.6937C288.006 47.1731 288.21 51.7612 287.738 56.2991L291.68 52.1957C289.965 48.7066 293.217 44.1988 296.871 46.8657L296.864 46.8668C298.164 47.9532 298.532 49.794 297.756 51.291C296.973 52.7964 295.259 53.5543 293.625 53.1247L287.321 59.6834C285.877 67.6892 283.688 75.5412 280.803 83.1489C283.541 80.4701 286.588 78.1319 289.883 76.1885C290.806 75.3142 296.171 71.4447 297.195 68.9703C299.656 65.1576 300.917 58.1045 306.13 57.5644C306.908 57.6448 307.619 58.0385 308.092 58.6578C308.564 59.277 308.758 60.0669 308.631 60.8369C304.969 74.8334 286.806 76.7644 279.104 87.9477C275.554 97.8396 271.693 107.634 267.277 117.171C269.575 115.908 271.983 114.872 274.478 114.065C276.188 110.85 278.391 108.305 279.503 104.444C276.567 102.314 278.841 97.21 282.486 98.7027C285.733 99.9215 284.831 105.578 281.333 105.368L281.324 105.362C280.342 108.164 278.989 110.816 277.299 113.254C281.62 112.181 286.093 111.813 290.529 112.163C291.998 108.211 297.681 108.427 297.356 113.079C297.043 116.501 291.408 118.068 290.608 114.206C287.192 113.93 283.751 114.098 280.375 114.696C282.619 116.612 284.218 119.178 284.95 122.033C288.219 121.527 289.178 126.199 286.271 127.447C283.306 128.863 280.329 125.048 283.045 122.827C282.261 119.782 280.463 117.102 277.957 115.211C273.603 116.267 269.464 118.048 265.712 120.485C258.683 135.746 249.528 149.93 238.525 162.625C243.7 161.378 249.062 161.073 254.347 161.721C268.4 157.881 273.965 140.497 288.009 136.948C297.079 136.943 288.727 150.772 285.758 154.032C271.813 171.718 251.954 158.463 235.245 166.182L235.254 166.189C230.768 170.912 225.979 175.332 220.904 179.416C226.532 178.965 235.943 183.051 238.95 175.447C236.904 172.933 239.827 169.066 242.728 170.861C245.25 172.507 243.411 176.924 240.742 176.422L240.749 176.421C239.81 178.352 238.347 179.967 236.519 181.083C240.355 182.032 244.082 183.36 247.643 185.055C247.976 184.194 248.654 183.508 249.512 183.159C250.377 182.809 251.337 182.84 252.184 183.228C253.023 183.61 253.662 184.333 253.961 185.214C254.252 186.088 254.169 187.049 253.73 187.865C252.187 191.479 246.776 191.458 246.848 186.934L246.849 186.942C241.316 184.284 235.391 182.557 229.299 181.834C230.59 183.362 231.41 185.241 231.656 187.229L231.733 187.285C233.465 186.957 235.168 187.991 235.686 189.672C236.205 191.361 235.368 193.163 233.753 193.868C232.192 194.489 230.415 193.968 229.445 192.604C228.473 191.233 228.574 189.383 229.673 188.118C229.561 185.45 228.169 182.997 225.932 181.535C223.33 181.38 220.718 181.408 218.117 181.617C205.697 191.278 191.582 198.548 176.491 203.051C175.733 203.256 174.948 202.827 174.706 202.075C174.471 201.322 174.875 200.525 175.617 200.262L175.617 200.259Z" fill="#B1DEDF" fill-opacity="0.5"/>
<path d="M301.767 124.604C294.809 119.464 289.269 121.843 287.458 122.897C286.479 122.295 285.472 121.75 284.436 121.258C287.689 121.687 293.866 121.681 295.07 115.713C296.719 107.54 296.198 109.166 296.198 109.166L296.204 109.16C293.512 108.894 290.798 109.392 288.378 110.602C285.328 112.315 283.122 118.688 282.566 120.431C272.026 116.141 259.528 116.732 253.838 117.316L253.832 117.311C262.289 110.937 271.654 105.872 281.623 102.283C289.628 102.787 296.806 102.081 300.765 98.5785C304.892 94.926 304.736 86.1911 304.736 86.1911C304.736 86.1911 299.972 84.7845 287.591 91.7481C282.127 94.8217 280.911 98.8621 280.662 100.905L280.651 100.911C265.832 106.376 252.362 114.983 241.185 126.143C240.924 122.444 239.784 119.497 239.755 114.653C239.714 108.198 242.597 101.345 245.543 95.6434C247.743 98.9196 251.118 101.218 254.973 102.063C260.755 103.012 267.256 97.0442 267.256 97.0442C267.256 97.0442 256.061 91.4293 246.707 93.8664V93.8606C249.422 89.7218 252.484 85.8262 255.865 82.2084C260.53 82.9088 265.097 80.4429 267.065 76.1537C269.525 70.9903 266.122 59.1999 266.122 59.1999C263.436 60.9653 260.889 62.9276 258.493 65.0751C253.046 70.2327 252.652 75.4307 253.868 80.9931C254.035 81.7745 247.147 89.6932 244.994 93.0447C245.249 89.5426 245.422 83.7716 243.564 80.7326C240.658 75.9803 230.019 75.8761 230.019 75.8761C230.019 75.8761 229.353 84.8714 233.77 89.3575C236.421 92.3501 240.074 94.2719 244.044 94.7697C241.44 99.6899 239.553 104.957 238.447 110.417C238.337 110.046 238.227 109.676 238.111 109.305H238.106C234.962 99.3722 229.66 90.256 222.58 82.6082C220.855 80.7327 218.285 78.2552 216.45 76.4955C219.952 75.2047 223.773 73.5203 225.868 70.4003L225.862 70.3945C228.369 66.8982 229.353 62.5395 228.595 58.3082C228.033 55.8598 226.904 52.0566 226.904 52.0566C226.904 52.0566 223.686 53.9494 221.463 55.4834C215.738 59.4312 214.257 67.8012 214.494 74.6718C209.956 70.5621 205.632 66.2265 201.528 61.6768C200.555 60.5364 200.04 59.0778 200.086 57.5786C200.208 52.45 199.6 50.0709 197.418 46.9162C194.09 42.106 182.79 40.3058 182.79 40.3058C182.79 40.3058 181.037 50.1753 185.332 55.2696C188.515 59.0437 196.249 58.5515 198.39 61.0406C202.263 65.5324 209.62 72.3513 213.944 76.3851C206.448 74.1277 194.726 72.912 188.452 77.7396C188 78.087 187.688 78.8684 188.249 79.3141C192.59 82.7813 198.032 85.5946 203.751 85.0967L203.756 85.1083C208.52 84.8362 212.804 82.0984 215.05 77.8843C217.4 80.1186 219.704 82.3935 221.874 84.8073C225.313 88.6219 228.305 92.8185 230.794 97.3104C232.317 100.06 233.642 102.908 234.771 105.843C229.938 101.194 223.565 98.4913 216.867 98.2481C215.681 98.1613 214.587 97.5651 213.869 96.61C209.719 91.2962 206.836 90.7925 199.126 90.8505H199.12C196.984 90.8562 194.854 91.1862 192.811 91.8171C192.811 91.8171 195.954 101.744 200.712 103.527C205.562 105.345 209.458 101.472 214.558 100.205C220.821 99.672 232.623 103.979 236.815 112.042V112.048C237.313 114.051 237.707 116.077 237.996 118.12C237.232 117.263 236.393 116.488 235.484 115.799C229.927 111.475 224.046 119.984 223.878 120.227C224.011 120.048 225.198 118.954 231.554 124.007C236.092 127.619 238.025 125.755 238.824 124.099C239.009 125.587 239.165 126.947 239.287 128.042H239.281C234.112 133.373 229.429 139.167 225.302 145.344C226.24 141.946 227.027 135.11 218.466 134.461C207.248 133.616 202.918 132.088 202.918 132.088C202.912 132.088 202.374 142.507 207.775 145.997C213.384 149.627 217.858 149.818 223.884 147.52C220.33 153.106 214.385 163.131 212.949 166.993H212.944C212.857 167.242 213.164 167.45 213.366 167.276L217.968 162.912C218.657 162.264 219.201 161.471 219.554 160.591C222.512 153.28 226.385 146.374 231.073 140.036C235.108 138.687 239.316 137.941 243.565 137.819C241.805 138.496 239.767 140.215 238.737 144.453C236.711 152.788 237.278 154.739 237.278 154.739L237.284 154.745C240.173 153.274 242.922 151.538 245.492 149.564C248.965 146.803 250.21 140.939 247.31 138.016C249.654 138.265 251.929 138.965 254.001 140.088C257.069 141.778 260.05 143.619 262.933 145.605C261.468 146.079 258.864 147.827 261.237 154.247L261.243 154.252C262.626 158.391 264.438 162.385 266.638 166.159C266.638 166.159 274.024 156.678 274.029 153.46C274.047 146.913 268.281 145.674 265.393 145.46H265.399C262.29 143.063 258.991 140.939 255.535 139.098C256.872 139.11 258.204 138.913 259.483 138.508C265.347 136.841 262.418 128.384 262.331 128.141C262.383 128.326 262.545 129.715 255.761 131.556C248.994 133.397 252.271 137.171 252.78 137.703C245.707 134.844 237.087 136.58 232.827 137.779V137.79C238.286 130.948 244.485 124.731 251.31 119.261C253.585 118.931 269.15 116.917 281.63 121.808C278.036 122.856 269.393 126.121 272.183 132.719C275.674 140.974 275.199 139.231 275.199 139.231V139.226C278.267 138.155 280.999 136.291 283.124 133.831C285.231 130.994 284.067 125.084 283.442 122.59V122.584C284.565 123.099 285.653 123.684 286.707 124.338C286.811 127.573 290.504 134.363 295.1 135.33C300.264 136.413 310.307 130.908 310.307 130.908L301.767 124.604Z" fill="#B1DEDF" fill-opacity="0.5"/>
<path d="M141.698 120.882C141.531 111.299 151.395 102.591 146.097 92.9985C142.367 85.4427 129.616 86.0461 128.962 95.3011C122.889 92.6753 121.13 101.499 122.91 105.653L122.905 105.64C124.709 110.032 127.507 113.937 131.09 117.053C134.862 121.391 138.773 125.764 142.156 130.362C135.998 127.538 129.719 124.961 123.535 122.204C122.165 119.209 119.71 116.686 118.51 113.65C122.978 106.522 122.682 97.4004 117.739 90.5831C114.836 85.5215 104.267 84.5724 106.361 92.5881C93.5604 90.4731 93.8153 107.838 105.382 109.241C117.25 110.054 114.262 112.279 120.144 120.684C106.162 113.792 91.0106 106.738 83.4271 92.3969C90.7053 73.8167 76.8367 69.8106 75.1361 79.8813C70.3266 76.6903 63.2853 83.2048 68.0571 87.8557C71.6478 91.4988 78.1826 89.0648 81.2647 93.1053C86.615 103.931 96.1531 110.434 106.315 116.17L106.322 116.151C99.2541 114.755 92.5026 112.077 86.4064 108.251C82.3749 105.327 85.7806 97.5228 80.8978 94.7613L80.8884 94.7575C79.0987 93.3862 76.5705 93.5332 74.93 95.095C73.3025 96.6511 73.0577 99.1755 74.3501 101.025C62.9964 98.1887 58.3911 113.937 71.8979 112.784C76.5847 112.43 81.1057 110.96 85.7681 110.421C88.7389 112.254 91.8285 113.872 95.014 115.277C84.8076 117.794 68.5597 111.952 65.0904 125.871C63.4029 133.751 71.4451 142.682 79.4813 139.089L79.487 139.102C81.075 140.076 83.0662 140.151 84.7295 139.298C86.3927 138.444 87.4929 136.787 87.6285 134.918C86.6318 129.406 83.12 123.653 87.8726 118.682C97.7905 116.311 108.233 117.439 117.41 121.896C87.6617 114.817 88.419 149.963 110.476 143.575C117.354 146.239 120.031 138.7 116.76 133.491L116.764 133.482C114.888 130.852 114.596 127.403 116.005 124.481C123.675 122.075 137.305 131.405 145.25 134.244L145.256 134.257C154.867 138.527 163.615 144.517 171.076 151.926C166.738 149.907 162.022 148.775 157.236 148.587C149.376 141.576 136.947 138.943 127.301 143.771C122.808 146.016 119.139 150.656 121.136 155.88L121.127 155.876C122.745 160.052 127.374 162.221 131.614 160.77C130.45 172.913 147.785 175.956 151.16 164.13C152.707 159.635 152.75 153.599 157.162 150.818C163.676 151.086 169.985 153.205 175.335 156.929C182.782 166.801 186.761 178.98 189.135 191.019L189.144 191.023C185.578 185.926 179.399 183.345 173.277 184.393C170.428 177.31 167.785 167.829 158.882 167.087C155.429 166.842 152.053 168.126 149.642 170.603C147.237 173.093 146.056 176.51 146.419 179.945C141.346 184.843 141.533 190.249 144.517 193.988C143.658 193.787 142.797 193.617 141.946 193.397C135.008 190.775 120.563 189.248 116.796 183.262L116.802 183.275C117.51 180.521 119.68 178.373 122.436 177.684C127.59 176.052 130.097 169.483 123.978 167.353C112.863 150.506 92.3073 173.598 116.263 185.823L116.257 185.81C107.575 183.561 99.9396 178.366 94.6553 171.118C94.3065 165.078 99.9389 163.234 103.744 160.112L103.754 160.116C104.722 158.788 104.936 157.049 104.309 155.531C103.682 154.012 102.303 152.925 100.679 152.669C97.3519 145.69 86.8743 147.082 83.5064 153.318C77.8931 164.621 92.1008 169.965 97.502 177.467C94.5613 176.597 91.5641 175.923 88.5388 175.456C85.7281 172.431 83.5332 168.876 80.6001 165.966C72.2188 157.501 66.323 170.657 75.5369 175.238L75.5406 175.229C73.6211 175.739 72.3439 177.567 72.5493 179.539C72.751 181.521 74.3672 183.052 76.3434 183.165C81.1924 184.099 83.3584 176.935 87.7251 177.272C93.9926 178.184 100.041 180.242 105.557 183.334C95.479 181.379 85.4007 180.298 75.6397 184.49C71.2749 185.432 68.2927 180.076 63.8055 180.478C57.9659 180.874 58.9646 189.249 64.0001 189.853C59.4077 197.566 70.9649 202.789 76.6928 186.2C89.9376 180.921 104.117 184.833 117.404 188.192C108.674 190.458 109.409 193.648 101.002 187.433C92.449 181.773 82.3806 193.26 92.1577 199.137C86.1861 203.305 93.8063 208.701 98.6326 206.96L98.6421 206.964C105.83 205.218 111.235 199.272 112.295 191.95C114.836 190.595 117.912 190.307 120.533 189.083C126.25 190.768 131.922 192.622 137.657 194.238C132.772 195.387 127.664 196.086 122.664 196.84L122.66 196.849C118.493 196.887 114.39 197.912 110.676 199.824C107.117 201.591 103.273 208.499 108.828 210.208C103.985 216.771 112.178 224.451 118.98 221.512C127.992 218.102 126.351 206.662 131.929 200.337L131.942 200.332C134.5 197.487 138.039 195.713 141.845 195.377C143.71 195.85 145.605 196.247 147.498 196.622C153.926 200.602 165.112 199.624 173.239 186.595C181.468 185.363 186.701 189.925 190.19 196.827C191.812 206.403 193.318 216.16 199.573 223.961C194.484 226.275 188.504 225.358 184.333 221.636C184.2 193.503 153.626 194.769 158.354 213.321C156.28 216.021 155.496 219.51 156.229 222.84C156.962 226.17 159.138 229.007 162.16 230.577C170.027 234.564 177.153 227.974 183.217 223.494L183.226 223.498C187.821 227.554 194.357 228.584 199.986 226.148C191.749 235.025 182.1 243.195 170.734 247.629C164.295 247.993 157.907 246.509 152.295 243.358C150.029 238.726 153.124 233.637 154.145 229.064C157.441 217.38 141.294 210.955 135.99 221.759L135.986 221.768C133.179 218.351 128.168 217.768 124.65 220.446C120.272 223.798 120.946 229.596 123.556 233.808C129.158 242.856 140.961 247.084 151.191 245.276L151.204 245.27C155.322 247.595 159.866 249.073 164.556 249.638C154.45 251.988 144.002 252.485 133.718 251.104C125.576 249.388 109.287 250.149 104.089 244.159C104.411 240.978 106.44 238.227 109.382 236.989C114.826 234.305 116.482 226.587 109.319 225.263C94.1035 208.481 75.2575 237.599 103.921 247.064C93.9071 246.042 84.554 241.591 77.4527 234.457C76.0435 227.818 81.9659 224.811 85.6561 220.693C86.5075 219.056 86.4527 217.09 85.4882 215.513C84.5368 213.93 82.8263 212.962 80.982 212.957C76.0952 205.78 64.7096 209.114 62.0519 216.606C57.7461 230.104 74.4273 233.607 81.6959 241.005L81.6921 241.014C78.2842 240.547 74.8501 240.31 71.4085 240.31C67.7728 237.436 64.7434 233.864 60.9832 231.136C50.2395 223.168 45.9413 238.778 56.9504 242.285C54.9028 243.17 53.8103 245.41 54.368 247.567C54.9219 249.733 56.9753 251.156 59.1925 250.939C64.7364 251.146 65.9098 242.831 70.8094 242.463C77.9209 242.412 84.9757 243.649 91.6388 246.139C80.1288 245.688 68.7544 246.208 58.6518 252.536C53.9705 254.324 49.7395 248.895 44.8415 250.105C38.4235 251.537 40.9689 260.662 46.6616 260.469C42.8832 269.807 56.5954 273.631 60.1192 254.249C73.91 246.129 90.3047 248.053 105.609 249.509C96.3145 253.516 97.6691 256.932 87.2892 251.469C76.8396 246.645 67.6343 261.111 79.4834 265.959C73.576 271.605 82.9443 276.292 88.0003 273.54L87.9815 273.532C95.6617 270.365 100.644 262.852 100.576 254.554C103.164 252.618 106.527 251.777 109.226 249.973C115.851 250.863 122.461 251.956 129.094 252.773C123.867 254.889 118.323 256.539 112.9 258.216L112.913 258.21C108.292 258.973 103.91 260.804 100.124 263.551C96.4733 266.123 93.388 274.438 99.8496 275.383C95.6001 283.495 105.999 290.604 113.052 286.192C122.469 280.868 118.702 268.458 123.802 260.488C126.147 256.892 129.775 254.322 133.942 253.301C142.12 254.245 150.386 254.175 158.54 253.099C147.074 264.311 154.369 270.769 137.932 267.582C119.846 265.571 121.819 292.243 139.19 287.194C142.958 296.896 159.617 287.913 155.623 276.974C154.898 274.663 152.899 272.858 152.279 270.556C151.354 263.281 157.791 257.595 162.219 252.451C194.676 246.617 202.488 217.029 227.027 205.802C228.381 205.339 227.447 203.304 226.102 203.771C216.649 207.027 210.269 214.538 203.87 221.823C203.143 222.275 202.407 222.669 201.678 223.044C201.662 223.027 201.661 223.004 201.64 222.974C186.446 200.235 195.44 170.562 170.554 148.263C169.473 141.461 166.944 133.14 171.616 127.36C173.377 125.716 176.057 125.215 177.913 123.608C187.186 116.292 177.593 99.6834 169.179 106.053C156.873 92.4562 140.99 114.412 157.664 122.305C173.533 128.302 163.813 129.987 167.732 145.758L167.73 145.735C161.272 140.464 154.181 136.011 146.625 132.476C143.572 129.375 141.81 125.229 141.702 120.881L141.698 120.882Z" fill="#B1DEDF" fill-opacity="0.5"/>
<path d="M123.005 214.029C110.967 215.684 98.7214 215.143 86.8739 212.448C85.8531 212.227 84.8548 211.983 83.8477 211.736L83.8343 211.74C83.7214 211.85 83.5863 211.938 83.4292 212.004C75.0603 218.936 64.7814 223.18 53.9576 224.178C52.0597 224.483 50.1359 223.899 48.7158 222.597C47.5389 221.127 47.5753 219.023 48.793 217.593C50.3755 215.89 52.3644 214.621 54.5706 213.912C57.201 212.815 59.9226 211.956 62.7041 211.352C67.2316 210.409 71.8221 209.848 76.4357 209.657C66.6403 206.489 57.1818 202.359 48.1897 197.346C43.1749 198.297 38.0468 198.571 32.9532 198.167C30.0968 197.867 27.2934 197.224 24.601 196.234C22.5539 195.474 19.7925 194.269 20.0539 191.618C20.5727 186.28 29.9637 186.78 33.4816 187.476C36.3381 188.168 39.1383 189.102 41.8422 190.266C43.057 190.722 44.267 191.209 45.4452 191.735C44.2654 190.534 43.1487 189.275 42.1042 187.963C35.586 183.008 24.7754 180.329 23.9385 170.656C23.6697 168.687 24.4642 166.725 26.0414 165.513C27.6186 164.302 29.7126 164.03 31.5542 164.796C37.0354 166.961 38.0986 174.314 40.0079 179.08C42.8481 186.144 48.6627 191.31 54.3151 196.18C56.3767 197.239 58.4566 198.263 60.5594 199.242C58.0183 196.69 55.477 194.137 52.9359 191.585L52.9404 191.576C50.7468 189.921 49.0915 187.656 48.1953 185.05C47.7526 183.048 48.7179 180.994 50.5378 180.053C55.3387 177.814 59.7496 183.461 61.8562 186.947L61.8607 186.938C64.9708 192.208 67.7482 197.668 70.1755 203.284C81.3024 207.664 93.0567 210.255 105 210.967C101.042 209.686 97.2134 208.022 93.576 206.007C90.3259 204.135 81.4661 197.134 86.4801 192.994C88.7257 191.137 91.977 192.089 94.48 192.835C97.5038 193.749 100.375 195.112 102.992 196.883C108.164 200.349 112.23 205.224 114.705 210.943C116.999 210.808 119.289 210.591 121.585 210.277L121.589 210.268C126.369 209.579 131.073 208.447 135.639 206.883C123.787 198.099 101.771 180.722 94.7805 175.198C91.0762 175.631 85.7845 176.159 84.572 180.377C83.4909 184.427 79.9668 189.209 75.7958 188.998C67.5679 186.736 71.9742 176.083 81.7695 176.803C82.7963 176.881 83.8179 176.62 84.6731 176.048C87.0082 174.586 89.637 173.645 92.3706 173.309C83.4804 166.236 74.1538 159.445 66.9326 150.591C46.9182 145.823 50.7941 157.867 38.9179 155.404L38.9133 155.413C36.5395 154.306 35.4347 151.559 36.3595 149.125C38.4938 143.965 44.8353 144.674 49.0672 147.084C54.0056 148.621 59.7102 146.7 64.8788 148.03C63.0753 145.441 61.6763 141.802 58.7331 140.054C50.8815 135.267 41.2379 122.731 48.0077 114.955C53.5368 110.708 61.757 115.718 63.0201 121.96L63.0336 121.956C63.6765 126.498 63.6212 131.109 62.8837 135.627C64.1368 148.076 76.9482 156.938 85.7726 164.358C80.2322 154.155 73.9745 128.295 88.2539 123.086C100.32 124.085 91.1864 144.136 86.5091 153.065C84.2156 158.076 88.647 165.497 91.8979 169.335C100.917 176.418 130.974 198.981 140.338 205.084L140.35 205.191C146.552 202.806 152.593 199.946 158.683 197.077L158.678 197.086C147.237 195.263 136.449 190.573 127.322 183.435C125.107 181.691 122.458 179.218 123.663 176.086C124.849 173.011 128.617 173.374 131.276 173.662L131.272 173.671C144.825 175.187 157.06 182.484 164.855 193.677C164.965 193.835 165.043 194.01 165.081 194.198C168.938 192.529 172.881 191.062 176.903 189.815C175.194 185.949 173.785 181.957 172.713 177.879L172.709 177.888L172.7 177.884C168.509 179.504 163.875 179.538 159.656 178C158.078 177.223 156.601 176.25 155.26 175.101C152.235 172.659 149.373 170.01 146.705 167.179C148.191 167.807 149.828 167.986 151.418 167.691C153.554 167.709 155.681 168.072 157.702 168.774C162.752 170.335 167.529 172.666 171.871 175.694C170.9 173.297 169.863 170.922 168.749 168.609L168.74 168.604C166 162.962 162.888 157.499 159.433 152.265L159.388 152.354L159.383 152.341C155.428 154.442 150.833 155.012 146.484 153.969C144.81 153.378 143.233 152.579 141.765 151.589C138.463 149.511 135.303 147.202 132.305 144.685C133.855 145.144 135.499 145.135 137.037 144.656C139.153 144.429 141.305 144.546 143.391 145.012C148.484 145.966 153.411 147.677 157.991 150.109C155.898 147.034 153.715 144.026 151.442 141.083C147.932 136.393 144.057 131.999 139.844 127.935C139.662 127.764 139.467 127.596 139.273 127.429L139.277 127.42C136.949 130.683 133.294 132.747 129.292 133.039C126.624 132.679 124.023 131.904 121.587 130.742C119.593 130.032 117.502 129.598 115.395 129.437C116.374 128.974 117.297 128.381 118.131 127.675C119.588 125.975 121.338 124.56 123.284 123.46C125.256 122.923 127.329 122.932 129.294 123.481C131.737 123.95 134.167 124.469 136.6 125.022C133.232 122.09 129.747 119.277 126.424 116.301C121.738 112.107 117.21 107.759 112.764 103.318L112.759 103.327C111.023 103.929 109.4 104.836 107.98 106.005C106.467 107.114 104.944 108.219 103.431 109.329C102.502 110.109 101.414 110.696 100.244 111.027C98.2496 111.171 96.2616 110.734 94.507 109.776C92.3848 108.944 90.1523 108.392 87.8899 108.117C90.3351 106.79 91.7761 104.138 94.0326 102.501C96.3143 101.011 98.9944 100.276 101.719 100.396C105.405 100.391 109.028 101.253 112.321 102.889C107.526 98.1003 102.821 93.223 98.1333 88.3326C94.881 87.8859 91.7518 86.7837 88.9285 85.1085C84.3927 82.7219 79.7957 79.7984 77.5168 75.3365C76.0052 72.2012 75.5436 68.6616 76.1664 65.2415C76.6191 63.486 76.7819 61.6826 76.6496 59.885C78.5315 63.0871 81.6067 65.4085 85.1978 66.3549C88.7757 67.2834 92.177 68.8175 95.2554 70.8709C100.016 74.7658 100.912 81.5047 99.7658 87.3856C107.121 95.04 114.504 102.685 122.245 109.965C121.234 106.772 120.022 103.644 118.598 100.599C117.577 98.783 116.88 96.7961 116.558 94.7326C116.487 93.5388 116.602 92.3515 116.914 91.1976C117.902 87.0664 120.044 83.3142 123.092 80.354C123.552 83.2187 124.299 86.0284 125.306 88.7471C125.99 90.3453 126.557 91.9958 127.008 93.6764C128.182 99.087 125.678 104.461 123.239 109.385L122.921 110.593C123.58 111.212 124.239 111.832 124.903 112.442C129.313 116.494 133.937 120.285 138.447 124.208L138.433 124.212C138.44 121.161 138.089 118.105 137.402 115.135C137.074 110.395 138.087 105.67 140.326 101.485C141.465 99.161 142.816 96.9462 144.353 94.8719C144.717 98.3387 145.475 101.761 146.623 105.058C147.767 108.363 147.902 111.926 147.007 115.307C145.386 118.833 142.815 121.847 139.592 124.011L138.769 124.498L138.778 124.502C143.194 128.456 147.244 132.794 150.906 137.45C152.07 138.901 153.202 140.37 154.33 141.848L154.325 141.857C155.926 139.31 156.994 136.466 157.455 133.491C157.72 131.751 157.788 129.978 158.093 128.248C159.204 122.326 162.982 117.247 168.338 114.473C168.764 120.094 168.487 125.748 167.519 131.305C167.372 132.881 166.798 134.371 165.863 135.643C165.325 136.209 164.73 136.712 164.078 137.129C161.335 139.057 158.593 140.983 155.86 142.915L154.867 142.574L154.858 142.569C159.936 149.3 164.465 156.423 168.395 163.879C170.604 159.229 172.805 154.575 175.018 149.917C175.582 148.6 176.311 147.357 177.186 146.223C178.605 144.751 180.276 143.554 182.122 142.671C184.352 141.436 186.586 140.191 188.816 138.956C186.912 142.268 185.496 145.832 184.598 149.548C184.408 150.529 184.295 151.515 184.083 152.496L184.074 152.491C182.291 159.438 176.164 164.388 168.994 164.681L168.457 164L168.466 164.005C171.284 169.384 173.698 174.96 175.704 180.697C176.545 179.41 177.101 177.955 177.84 176.605C180.296 172.262 184.565 169.266 189.48 168.422C192.57 168.245 195.639 167.846 198.684 167.231C195.11 168.876 194.053 173.163 191.851 176.334C188.286 181.129 182.186 183.319 176.375 181.906L176.033 181.697C177.015 184.616 178.052 187.451 178.738 189.264C183.808 187.791 189.019 186.874 194.282 186.535C200.702 186.172 207.144 186.662 213.434 187.996C215.075 184.694 216.572 181.386 217.836 178.183L217.84 178.196C215.816 178.245 213.808 177.978 211.87 177.398C208.749 176.412 205.264 171.476 205.898 170.308C207.148 168.008 213.616 169.781 215.206 170.687L215.197 170.683C216.829 171.353 218.284 172.37 219.471 173.665C220.425 170.628 221.196 167.532 221.767 164.388C211.549 167.596 200.39 165.311 192.249 158.353C191.965 158.118 191.84 157.728 191.938 157.363C192.031 157.006 192.329 156.732 192.7 156.665C198.639 154.617 204.934 153.819 211.189 154.325C215.504 154.869 219.507 156.892 222.515 160.044C223.157 155.363 223.302 150.642 222.947 145.933C212.366 149.191 200.927 148.02 191.223 142.686C190.89 142.526 190.67 142.188 190.67 141.817C190.665 141.433 190.883 141.096 191.234 140.939C201.189 136.888 213.73 134.537 222.528 141.854C221.962 137.666 221.055 133.527 219.809 129.483C210.833 135.453 199.709 132.096 190.566 128.207L190.57 128.198C190.219 128.051 189.99 127.709 189.99 127.316C189.994 126.936 190.226 126.595 190.581 126.451C199.296 122.954 210.038 120.06 218.442 125.412C217.054 121.621 215.415 117.926 213.532 114.353C201.905 119.364 188.863 120.065 176.768 116.322C176.457 116.184 176.241 115.905 176.2 115.569C176.159 115.234 176.292 114.909 176.558 114.697C186.4 107.04 199.601 105.263 211.122 110.037C208.228 105.068 204.875 100.38 201.115 96.0221C189.774 105.527 173.773 107.134 160.776 100.052C160.208 99.7374 159.918 98.8585 160.566 98.4277C171.494 91.1705 184.026 87.6798 196.637 91.0704C195.762 90.127 188.846 83.5409 185.91 81.1675C181.583 81.3032 178.635 84.0904 174.65 85.6373C170.613 87.4832 166.154 88.2475 161.726 87.8592C161.392 87.8108 161.113 87.5888 160.982 87.2746C160.86 86.965 160.9 86.6035 161.104 86.3376C166.21 80.3347 173.987 77.2879 181.805 78.227C179.384 76.4892 176.891 74.8488 174.334 73.3105L174.339 73.3016C174.289 73.31 174.245 73.3095 174.195 73.3179C161.363 73.3069 152.023 87.3327 138.657 84.1609C138.148 84.0794 137.783 83.6107 137.842 83.1019C139.423 77.0292 144.158 72.2956 150.221 70.7044C156.269 69.2517 162.549 69.0299 168.677 70.0668C163.607 67.4733 158.363 65.2622 152.968 63.4336C152.918 63.4867 152.86 63.5352 152.797 63.5703C140.818 70.8383 127.072 74.6821 113.055 74.6806C112.269 74.6809 112.096 73.6826 112.433 73.159C120 61.4906 134.605 60.8733 147.307 61.7277C142.821 60.5124 134.279 59.1898 131.237 58.7275C130.487 58.6121 129.733 58.5948 128.972 58.6535C122.515 59.1547 116.079 58.9142 110.453 55.2378C104.695 51.4705 100.953 45.5047 97.4059 39.7732C97.0678 39.2289 97.2479 38.2881 98.0257 38.2608C110.752 37.7347 120.715 45.9983 129.426 54.3153L129.431 54.3064C130.227 55.0747 131.249 55.5774 132.346 55.7369C135.875 56.2581 144.122 57.5638 148.599 58.7971C142 52.2503 138.025 43.5027 137.453 34.2116C137.415 33.5633 138.071 32.8332 138.764 33.2117C148.931 38.7162 152.228 50.1597 154.69 60.6687L154.686 60.6776C160.477 62.6535 166.089 65.11 171.464 68.0285L171.601 68.1104L171.606 68.1015C169.003 62.6084 166.908 56.8929 165.332 51.0179C163.744 45.0802 161.257 37.2201 164.617 31.4884C164.89 31.0222 165.582 30.6366 166.069 31.1111C171.167 36.0328 174.712 42.3362 176.254 49.261C177.938 56.2141 177.675 63.5033 175.487 70.32C178.324 72.0133 181.083 73.8353 183.769 75.7772L183.774 75.7683C182.819 73.2333 182.424 70.5258 182.632 67.8247C183.023 64.7683 184.466 61.9379 186.701 59.8177C186.922 59.6056 187.241 59.5108 187.539 59.5856C187.842 59.6515 188.086 59.8775 188.181 60.1735C190.036 66.1365 191.789 73.3942 187.377 78.4843L187.372 78.4931C191.209 81.4976 194.846 84.7591 198.257 88.2414C195.127 76.9962 198.092 64.929 206.082 56.3966C206.29 56.1442 206.618 56.0093 206.943 56.0531C207.278 56.1014 207.566 56.3056 207.701 56.611C210.349 63.7221 212.91 71.3728 211.919 79.0742C211.34 85.0106 208.242 90.4055 203.405 93.8957C206.978 98.0903 210.218 102.563 213.084 107.259C212.784 97.5911 217.468 88.4514 225.499 83.0518C225.769 82.8537 226.118 82.8084 226.434 82.937C226.736 83.0699 226.957 83.3404 227.011 83.6716C227.778 90.3332 228.576 97.482 225.941 103.856L225.937 103.865C224.276 108.212 220.869 111.673 216.543 113.404C218.061 116.33 219.427 119.334 220.644 122.408C222.236 114.566 227.802 108.126 235.317 105.393C235.626 105.271 235.983 105.32 236.249 105.524C236.515 105.728 236.659 106.06 236.624 106.39C236.7 111.619 235.21 116.75 232.347 121.12C230.009 124.445 226.468 126.725 222.474 127.482C223.797 131.553 224.796 135.728 225.429 139.962C227.779 134.733 232.596 131.02 238.254 130.085C238.599 130.026 238.937 130.155 239.153 130.435C239.36 130.709 239.409 131.072 239.258 131.387C236.458 137.407 232.911 143.806 226.02 145.152C226.35 149.297 226.318 153.47 225.933 157.608C231.321 145.831 243.3 138.474 256.248 139.004C256.57 139.012 256.867 139.176 257.061 139.433C257.255 139.69 257.328 140.008 257.261 140.333C253.967 155.118 240.175 165.151 225.088 163.734C224.855 164.996 224.6 166.257 224.3 167.519C223.907 169.181 223.469 170.821 222.982 172.446L222.973 172.441C227.206 168.618 233.511 168.174 238.239 171.367C238.647 171.688 238.725 172.279 238.413 172.691C234.529 178.086 227.442 180.095 221.304 177.548C219.918 181.362 218.348 185.094 216.575 188.743C221.449 189.989 226.18 191.712 230.705 193.902C232.98 195.004 230.804 198.277 228.555 197.189L228.564 197.194C224.164 195.068 219.557 193.431 214.802 192.302C211.907 197.914 208.657 203.365 205.244 208.654C204.144 210.357 201.658 208.418 202.759 206.714C205.745 202.082 208.809 196.906 211.588 191.606C209.056 191.113 206.495 190.763 203.919 190.552C189.202 198.536 188.588 220.697 172.086 226.932C169.439 227.93 165.002 229.11 163.046 226.229C161.115 223.384 163.879 219.098 165.349 216.63L165.353 216.644C167.55 213.178 170.047 209.935 172.837 206.932C175.72 203.527 178.79 200.286 182.036 197.225C184.695 194.783 187.596 192.612 190.699 190.769C179.98 192.439 169.599 195.833 159.964 200.812C155.266 203.026 150.586 205.249 145.832 207.243C142.225 219.183 132.681 227.747 121.802 233.333C119.085 234.992 116.114 236.206 113.019 236.94C111.719 237.261 110.346 237.027 109.228 236.296C108.105 235.573 107.331 234.412 107.1 233.091C106.815 230.17 109.302 228.258 111.568 226.996C115.273 224.923 119.222 223.336 123.093 221.618C129.28 218.866 135.822 215.511 139.967 210.024C139.816 209.925 139.67 209.816 139.514 209.702C134.175 211.699 128.646 213.149 123.006 214.025L123.005 214.029Z" fill="#B1DEDF" fill-opacity="0.5"/>
<path d="M210.401 238.084C217.452 219.091 228.911 202.044 243.82 188.334C248.298 189.054 249.9 194.228 251.937 197.647C260.422 210.842 271.058 197.86 251.42 190.595L251.427 190.597C250.622 190.31 249.881 189.867 249.242 189.301C248.171 188.252 246.948 187.369 245.616 186.678C250.358 182.361 255.384 178.366 260.666 174.717C268.026 172.969 276.697 176.073 278.162 184.216C274.588 186.727 279.207 191.848 282.551 189.764L282.55 189.771C284.145 188.947 284.864 187.053 284.219 185.373C283.571 183.701 281.767 182.778 280.035 183.236C279.287 180.208 277.572 177.502 275.14 175.533C279.558 176.677 283.728 178.626 287.431 181.289C286.466 183.292 287.156 185.694 289.028 186.877C290.905 188.068 293.369 187.667 294.771 185.949C296.174 184.232 296.064 181.731 294.526 180.137C292.979 178.548 290.488 178.361 288.721 179.701C285.865 177.634 282.739 175.969 279.434 174.748C281.014 174.173 282.444 173.26 283.632 172.079C284.94 173.602 287.169 173.94 288.87 172.869C290.571 171.799 291.231 169.647 290.42 167.809C289.616 165.973 287.584 165.002 285.645 165.531C283.707 166.06 282.448 167.93 282.69 169.922L282.614 170.205C277.851 175.982 270.424 171.549 264.211 172.338C301.268 145.868 295.91 171.943 328.418 177.442L328.411 177.44C330.408 177.714 332.375 176.761 333.406 175.026C334.435 173.298 334.327 171.112 333.132 169.491C329.029 162.602 314.998 161.535 306.377 162.868L306.37 162.866C304.321 163.157 302.223 162.785 300.391 161.811C297.22 160.105 293.766 158.968 290.204 158.444C297.647 155.165 305.27 152.293 312.974 149.698L312.975 149.691C317.155 150.339 321.112 151.99 324.497 154.523C324.484 157.673 328.988 160.422 330.698 156.838L330.7 156.831C331.437 155.424 331.072 153.689 329.826 152.702C328.58 151.715 326.801 151.749 325.603 152.796C322.941 150.824 319.936 149.346 316.747 148.442C323.029 146.394 329.241 144.601 335.588 142.752C340.491 143.853 345.35 146.848 347.156 151.782L347.15 151.773C345.603 152.301 344.63 153.841 344.827 155.464C345.033 157.087 346.343 158.349 347.98 158.477C349.798 158.582 351.409 157.323 351.745 155.539C352.089 153.749 351.055 151.986 349.328 151.418C348.762 150.047 348.024 148.762 347.126 147.58C349.564 147.657 351.898 148.615 353.68 150.285C352.933 153.96 358.308 157.233 360.522 153.657C362.321 149.509 359.112 146.476 355.128 148.861L355.135 148.863C352.524 146.402 348.952 145.209 345.382 145.62C343.616 143.908 341.508 142.575 339.206 141.723C352.962 136.173 361.783 140.26 370.512 151.658C371.813 153.217 373.157 155.146 375.353 155.385L375.345 155.384C376.194 155.504 377.053 155.288 377.738 154.775C378.423 154.262 378.87 153.499 378.988 152.657C379.416 147.066 368.031 143.282 363.633 141.898L363.635 141.89C361.656 140.347 359.482 139.07 357.168 138.092C362.729 137.478 368.349 137.882 373.763 139.285C397.244 163.124 397.7 141.471 380.141 137.327C382.263 135.902 385.696 133.545 384.336 130.578C382.007 126.191 376.547 133.614 374.532 136.473L374.525 136.472C370.108 135.321 365.541 134.835 360.983 135.027L365.321 131.345C368.698 133.271 373.397 130.302 370.96 126.491L370.959 126.499C369.954 125.133 368.139 124.654 366.598 125.336C365.047 126.025 364.185 127.689 364.513 129.347L357.579 135.235C349.5 136.185 341.528 137.886 333.758 140.297C336.6 137.73 339.121 134.833 341.263 131.663C342.192 130.796 346.384 125.679 348.917 124.809C352.874 122.587 359.991 121.762 360.851 116.592C360.819 115.811 360.469 115.076 359.88 114.567C359.291 114.058 358.515 113.815 357.738 113.894C343.543 116.689 340.499 134.699 328.863 141.699C318.772 144.634 308.758 147.885 298.968 151.706C300.37 149.49 301.552 147.15 302.511 144.709C305.825 143.201 308.501 141.158 312.422 140.286C314.368 143.348 319.602 141.391 318.337 137.662C317.32 134.346 311.618 134.899 311.613 138.403L311.619 138.412C308.762 139.22 306.031 140.408 303.494 141.944C304.831 137.697 305.473 133.256 305.397 128.806C309.432 127.583 309.565 121.898 304.902 121.936C301.467 122.038 299.557 127.566 303.362 128.602C303.427 132.028 303.048 135.452 302.244 138.785C300.47 136.427 298.007 134.674 295.202 133.767C295.908 130.536 291.304 129.291 289.88 132.116C288.284 134.988 291.909 138.194 294.292 135.621C297.283 136.59 299.848 138.549 301.581 141.167C300.26 145.448 298.227 149.469 295.564 153.064C279.9 159.142 265.18 167.407 251.832 177.608C253.395 172.52 254.029 167.187 253.707 161.873C258.404 148.082 276.097 143.597 280.503 129.797C281.066 120.745 266.75 128.23 263.314 130.993C244.803 143.825 256.812 164.461 248.08 180.664L248.074 180.655C243.084 184.842 238.377 189.35 233.989 194.164C234.785 188.575 231.286 178.93 239.06 176.397C241.443 178.593 245.483 175.913 243.871 172.908C242.383 170.289 237.861 171.853 238.197 174.548L238.199 174.541C236.214 175.359 234.512 176.72 233.285 178.475C232.575 174.589 231.478 170.788 230.005 167.129C230.885 166.849 231.611 166.215 232.012 165.38C232.415 164.538 232.443 163.578 232.108 162.708C231.778 161.848 231.095 161.165 230.235 160.813C229.381 160.469 228.417 160.493 227.575 160.88C223.872 162.198 223.561 167.6 228.08 167.807L228.073 167.805C230.386 173.492 231.745 179.511 232.092 185.637C230.647 184.254 228.822 183.319 226.853 182.952L226.801 182.872C227.235 181.163 226.308 179.4 224.661 178.779C223.007 178.157 221.158 178.882 220.354 180.451C219.639 181.97 220.05 183.776 221.351 184.829C222.66 185.883 224.513 185.896 225.843 184.876C228.499 185.152 230.862 186.693 232.183 189.015C232.178 191.622 231.989 194.227 231.621 196.81C221.214 208.613 213.091 222.255 207.668 237.04C207.417 237.784 207.796 238.594 208.532 238.881C209.27 239.162 210.09 238.808 210.398 238.084L210.401 238.084Z" fill="#B1DEDF" fill-opacity="0.5"/>
<path d="M179.041 272.277C181.904 272.751 184.831 272.799 187.71 272.419C192.971 271.683 198.049 269.935 202.652 267.277C206.956 264.683 211.061 261.764 214.921 258.545C213.711 262.168 212.248 265.687 210.531 269.097C209.803 270.536 209.036 271.928 208.245 273.329C204.48 275.591 200.588 277.624 196.577 279.404C196.554 279.277 196.522 279.142 196.475 279.024C196.103 278.106 195.193 277.529 194.204 277.56C193.342 277.584 192.543 278.035 192.069 278.763C191.602 279.491 191.523 280.408 191.863 281.207C192.148 281.824 192.709 282.267 193.374 282.417C194.038 282.56 194.734 282.393 195.264 281.958C195.454 281.887 195.636 281.776 195.786 281.634L195.826 281.595C195.866 281.555 195.929 281.515 195.968 281.476L195.968 281.452C199.575 279.894 203.095 278.146 206.52 276.224C202.13 283.113 197.361 289.742 192.227 296.094C191.989 295.88 191.689 295.77 191.372 295.785C191.278 295.77 191.183 295.762 191.088 295.77C190.961 295.746 190.835 295.73 190.708 295.73C190.368 295.754 190.036 295.841 189.735 295.991C189.3 296.236 188.944 296.6 188.723 297.043C188.359 298.198 188.912 299.44 190.02 299.938C191.016 300.595 192.345 300.381 193.097 299.456C193.532 298.87 193.603 298.079 193.279 297.431C193.967 296.521 194.655 295.627 195.367 294.741L195.359 294.733C199.994 288.904 204.305 282.821 208.26 276.508C208.506 279 208.79 281.468 209.154 283.944C209.835 289.394 211.266 294.733 213.402 299.796C215.53 304.835 218.892 309.257 223.163 312.658C223.377 312.848 223.677 312.919 223.954 312.832C224.231 312.753 224.445 312.531 224.524 312.255C225.505 309.296 226.066 306.211 226.201 303.095C226.454 297.154 225.085 291.253 222.238 286.032C219.39 280.812 215.174 276.461 210.04 273.455C211.354 271.13 212.595 268.741 213.687 266.265C217.413 257.777 219.723 248.744 220.529 239.513C221.89 241.886 223.266 244.211 224.722 246.497C227.641 251.267 231.248 255.578 235.416 259.296C239.332 262.784 244.022 265.276 249.109 266.565C249.354 266.621 249.615 266.557 249.813 266.391C250.01 266.233 250.121 265.988 250.121 265.735C249.797 262.491 249.006 259.32 247.772 256.298C245.533 250.871 241.879 246.149 237.196 242.613C232.45 239.038 226.825 236.807 220.917 236.151C220.877 236.135 220.837 236.127 220.798 236.135C221.28 226.991 220.711 217.823 219.097 208.814C218.892 207.58 218.654 206.345 218.409 205.112C222.095 209.296 226.011 213.275 230.132 217.032L230.132 217.056C231.097 218.931 231.643 220.987 231.73 223.091C231.793 224.064 231.793 225.037 231.793 226.01C231.769 226.722 231.912 227.932 231.287 228.462L231.287 228.454C230.915 228.692 230.512 228.874 230.092 228.984C228.708 229.53 227.957 231.033 228.352 232.465C228.637 233.406 229.373 234.134 230.314 234.403C231.247 234.68 232.268 234.458 233.003 233.826C233.636 233.224 233.968 232.37 233.913 231.508C233.85 230.638 233.407 229.839 232.703 229.325C232.837 229.167 232.94 228.993 233.027 228.803C233.343 227.933 233.478 227.007 233.43 226.09C233.51 223.835 233.28 221.581 232.766 219.382C239.347 225.117 246.577 230.076 254.29 234.166C255.081 234.569 255.848 234.957 256.639 235.337L256.639 235.345C253.349 242.076 252.463 249.733 254.124 257.042C255.793 264.351 259.906 270.869 265.791 275.521C266.005 275.71 266.305 275.774 266.582 275.695C266.859 275.608 267.073 275.394 267.152 275.117C268.101 272.38 268.647 269.525 268.765 266.63C268.924 261.353 268.101 256.093 266.337 251.118C264.605 246.229 262.501 241.475 260.04 236.903C266.796 239.917 273.931 241.989 281.24 243.081C283.708 243.429 286.2 243.706 288.715 243.912C288.612 247.028 288.945 250.137 289.704 253.159C291.159 258.933 294.149 264.193 298.358 268.393C302.566 272.594 307.834 275.576 313.6 277.015C313.854 277.071 314.107 277.008 314.304 276.841C314.502 276.683 314.621 276.438 314.613 276.185C314.368 273.337 313.711 270.545 312.667 267.887C310.697 263.022 307.842 258.569 304.251 254.74C300.62 250.904 296.696 247.36 292.504 244.149C293.517 244.212 294.529 244.267 295.565 244.307L295.557 244.315C299.497 244.552 303.452 244.196 307.288 243.263C310.326 243.263 313.34 243.302 316.377 243.239C321.883 243.239 327.356 242.377 332.601 240.692C337.837 238.999 342.575 236.033 346.388 232.062C346.562 231.872 346.641 231.619 346.602 231.366C346.562 231.113 346.404 230.891 346.182 230.765C343.311 229.491 340.274 228.637 337.157 228.233C331.493 227.45 325.727 228.194 320.451 230.385C314.874 232.845 310.081 236.784 306.576 241.76C306.133 241.878 305.682 241.981 305.216 242.06L305.216 242.068C301.071 242.78 296.847 242.931 292.662 242.511C296.261 240.644 299.742 238.564 303.096 236.294L303.159 236.294C303.199 236.294 303.222 236.27 303.262 236.27L303.254 236.27C303.286 236.262 303.325 236.262 303.357 236.254C303.562 236.199 303.752 236.104 303.926 235.97C304.749 235.669 305.326 234.918 305.398 234.047C305.469 233.169 305.034 232.331 304.266 231.904C303.547 231.5 302.684 231.453 301.925 231.777C301.166 232.102 300.604 232.766 300.398 233.557C300.217 234.34 300.454 235.147 301.023 235.709C297.329 238.137 293.485 240.328 289.506 242.266C285.48 242.013 281.477 241.507 277.514 240.771C276.178 240.51 274.841 240.202 273.528 239.861C275.616 239.134 277.72 238.406 279.808 237.631C285.005 235.803 289.894 233.201 294.308 229.895C298.698 226.58 302.194 222.23 304.472 217.223C304.599 216.962 304.583 216.653 304.433 216.408C304.282 216.163 304.005 216.02 303.721 216.02C294.853 215.34 286.089 218.283 279.421 224.168C275.11 228.194 271.938 233.296 270.245 238.944C264.748 237.267 259.424 235.044 254.353 232.323C257.201 230.622 259.843 228.581 262.208 226.248C262.469 226.422 262.77 226.509 263.078 226.517C263.268 226.509 263.466 226.47 263.648 226.414C263.948 226.43 264.249 226.367 264.518 226.232C265.095 225.884 265.483 225.299 265.578 224.634C265.665 223.962 265.451 223.29 264.985 222.807C264.447 222.309 263.727 222.064 262.999 222.135C262.272 222.198 261.607 222.578 261.172 223.171C260.792 223.725 260.784 224.452 261.156 225.014C258.625 227.53 255.753 229.673 252.629 231.39C252.281 231.184 251.941 231.002 251.617 230.82L251.617 230.828C245.296 227.173 239.348 222.918 233.835 218.132C236.136 218.741 238.478 219.145 240.843 219.343C246.665 219.825 252.518 218.907 257.913 216.669C263.917 214.225 269.248 210.372 273.449 205.436C273.67 205.191 273.726 204.843 273.591 204.543C273.465 204.25 273.164 204.052 272.84 204.052C269.43 204.115 266.037 203.672 262.754 202.763C257.004 201.402 250.849 199.907 245.194 202.415C239.095 205.128 235.599 211.1 231.098 215.72C230.449 215.111 229.785 214.501 229.136 213.877C225.118 210.064 221.305 206.038 217.698 201.829C217.073 198.998 216.361 196.181 215.57 193.381C219.027 193.935 222.547 193.888 225.98 193.239C226.257 193.959 226.826 194.536 227.538 194.821C228.559 195.232 229.721 194.916 230.394 194.054C231.09 193.231 231.153 192.052 230.56 191.159C229.927 190.312 228.836 189.948 227.823 190.249C227.285 190.423 226.842 190.818 226.605 191.34C226.605 191.38 226.597 191.412 226.565 191.443C222.792 192.274 218.892 192.345 215.088 191.641C213.727 186.942 212.192 182.307 210.531 177.727L210.531 177.735C212.675 178.866 214.882 179.894 217.128 180.812C222.159 182.916 227.506 184.15 232.949 184.451C238.074 184.72 243.192 183.834 247.93 181.864C247.954 181.84 247.97 181.84 247.994 181.825C248.176 181.753 248.334 181.627 248.437 181.461C248.476 181.342 248.508 181.231 248.516 181.113L248.516 181.01C248.524 180.986 248.516 180.954 248.5 180.931L248.5 180.891C248.476 180.741 248.405 180.598 248.294 180.488C248.286 180.488 248.278 180.48 248.278 180.464L248.215 180.401L248.097 180.337L248.097 180.345C245.304 179.088 242.749 177.379 240.519 175.283C238.501 173.424 236.255 171.826 233.834 170.521C231.287 169.303 228.408 168.947 225.639 169.508C220.031 170.56 215.491 174.61 209.843 175.504C209.78 175.48 209.724 175.449 209.677 175.401C206.054 165.68 201.941 156.124 197.827 146.608L197.835 146.608C197.701 146.181 197.258 145.928 196.823 146.038C196.388 146.165 196.134 146.616 196.253 147.051C196.799 148.324 197.345 149.606 197.891 150.856C201.474 159.201 205.017 167.562 208.174 176.089L208.182 176.089C208.182 176.224 208.229 176.35 208.3 176.453C208.909 178.09 209.518 179.752 210.08 181.413C212.105 187.227 213.908 193.12 215.388 199.092C212.959 196.173 210.61 193.175 208.324 190.161C201.885 181.634 195.952 172.767 189.996 163.915C189.411 163.045 188.011 163.891 188.596 164.77C189.347 165.901 190.115 167.04 190.866 168.171C193.983 172.806 197.123 177.426 200.343 181.998L200.343 182.006C198.183 184.371 196.15 186.862 194.268 189.457C191.214 193.483 189.458 198.34 189.229 203.387C189.229 208.513 192.005 212.942 193.136 217.823C193.223 218.108 193.453 218.313 193.738 218.385C194.022 218.456 194.323 218.377 194.529 218.171C196.546 215.845 198.373 213.362 199.979 210.735C202.708 206.385 204.416 201.473 204.962 196.363C205.247 193.309 204.978 190.24 204.147 187.289C205.967 189.781 207.833 192.241 209.74 194.678C211.844 197.367 213.995 200.009 216.202 202.596C216.914 205.776 217.515 208.971 218.006 212.191L217.998 212.199C218.006 212.301 218.022 212.396 218.045 212.499C217.848 213.504 217.515 214.477 217.072 215.394C216.59 216.407 215.878 217.261 215.332 218.21C214.747 219.183 214.201 220.172 213.631 221.169C213.37 221.635 213.102 222.102 212.825 222.545C212.746 222.703 212.643 222.846 212.54 223.012L212.532 223.012C212.445 223.012 212.35 223.028 212.271 223.067C211.646 222.703 210.871 222.679 210.23 223.012C209.582 223.344 209.154 223.985 209.091 224.712C209.154 225.543 209.582 226.302 210.27 226.777C210.95 227.252 211.812 227.394 212.619 227.157C213.592 226.927 214.32 226.112 214.438 225.116C214.462 224.617 214.312 224.119 214.011 223.716C215.048 222.039 215.918 220.291 216.97 218.629C217.5 217.799 218.085 217.032 218.528 216.161C219.335 222.861 219.54 229.617 219.137 236.356C216.012 238.073 212.659 239.322 209.17 240.082C209.131 240.018 209.107 239.939 209.067 239.876L209.075 239.876C208.561 239.164 207.62 238.911 206.821 239.267C206.18 239.52 205.658 240.018 205.397 240.659C205.136 241.3 205.144 242.02 205.429 242.653C205.729 243.222 206.267 243.625 206.892 243.76C207.525 243.894 208.181 243.744 208.688 243.341C208.814 243.222 208.917 243.08 209.012 242.937C209.4 242.621 209.629 242.154 209.637 241.656C212.872 240.92 216.012 239.805 218.995 238.342C218.931 239.235 218.836 240.145 218.734 241.031C218.211 245.848 217.278 250.61 215.933 255.269C213.196 254.51 210.372 254.075 207.533 253.972C201.909 253.79 196.34 255.15 191.436 257.903C185.962 260.988 181.485 265.568 178.511 271.105C178.392 271.327 178.384 271.588 178.487 271.817C178.59 272.054 178.796 272.221 179.041 272.277ZM213.308 282.22C218.608 290.763 221.914 300.39 222.982 310.388C221.178 308.813 219.573 307.026 218.204 305.064C215.269 300.634 213.173 295.698 212.026 290.501C211.061 286.175 210.381 281.784 210.001 277.363C211.18 278.937 212.272 280.543 213.308 282.22ZM229.706 240.138C234.879 242.353 239.356 245.921 242.67 250.469C244.917 253.609 246.57 257.129 247.567 260.855C246.697 259.495 245.763 258.181 244.79 256.908C241.618 252.716 237.98 248.911 233.938 245.549C230.528 242.709 226.842 240.218 222.942 238.098C225.268 238.509 227.538 239.197 229.706 240.138ZM314.535 235.748C319.004 232.284 324.375 230.179 330.007 229.689C333.567 229.396 337.15 229.689 340.615 230.567C339.033 230.67 337.459 230.812 335.877 231.01C330.656 231.651 325.514 232.877 320.57 234.672C317.185 235.906 313.902 237.417 310.77 239.189C311.933 237.947 313.19 236.8 314.535 235.748ZM297.362 250.327C301.554 253.847 305.201 257.968 308.175 262.556C310.532 266.242 312.106 270.371 312.794 274.69C310.714 273.021 308.737 271.233 306.878 269.319C303.302 265.657 300.154 261.591 297.504 257.208C295.345 253.617 293.517 249.828 292.054 245.889C293.857 247.329 295.645 248.808 297.362 250.327ZM275.696 231.089C278.781 226.335 283.187 222.586 288.368 220.3C291.596 218.844 295.037 217.966 298.557 217.681C297.077 218.29 295.622 218.955 294.182 219.667C289.492 221.992 285.078 224.832 281.02 228.131C278.22 230.401 275.617 232.908 273.244 235.629C273.932 234.047 274.747 232.529 275.696 231.089ZM259.291 259.804C260.256 263.577 261.545 267.255 263.143 270.799C262.083 269.652 261.11 268.418 260.248 267.113C257.076 262.398 255.257 256.9 255.003 251.221C254.79 246.625 255.597 242.045 257.353 237.79C257.195 239.917 257.131 242.061 257.171 244.213C257.274 249.473 257.993 254.709 259.291 259.804ZM264.48 211.307C259.544 214.684 253.88 216.844 247.955 217.603C243.597 218.078 239.183 217.777 234.935 216.709C236.778 216.282 238.621 215.839 240.441 215.373C245.725 214.06 250.969 212.596 256.174 210.998C260.976 209.543 265.753 207.937 270.491 206.26L270.491 206.268C268.664 208.143 266.647 209.835 264.48 211.307ZM217.864 176.7C222.903 176.628 227.934 177.008 232.909 177.831C237.173 178.527 241.373 179.61 245.439 181.074C243.509 181.754 241.516 182.237 239.491 182.514C234.436 183.154 229.303 182.814 224.382 181.517C220.293 180.425 216.338 178.891 212.573 176.945C214.337 176.802 216.1 176.715 217.864 176.7ZM192.876 211.765C192.591 211.037 192.33 210.309 192.069 209.558L192.061 209.566C191.238 207.343 190.843 204.986 190.89 202.621C191.017 200.342 191.547 198.112 192.449 196.016C194.434 191.792 197.084 187.916 200.303 184.538C200.256 186.27 199.979 187.995 199.473 189.656C198.176 194.093 195.771 198.08 194.307 202.454C193.374 205.476 192.884 208.608 192.876 211.773L192.876 211.765ZM186.026 263.933C190.147 259.97 195.304 257.256 200.913 256.117C204.425 255.469 208.016 255.429 211.544 255.999C210.247 256.204 208.973 256.426 207.7 256.687L207.692 256.687C202.558 257.779 197.567 259.479 192.829 261.749C189.316 263.411 185.947 265.348 182.751 267.563C183.74 266.266 184.831 265.048 186.026 263.933Z" fill="#B1DEDF" fill-opacity="0.5"/>
<path d="M148.654 274.829C151.254 277.636 154.691 276.776 157.813 274.935C157.184 277.231 157.096 279.636 157.551 281.969C158.014 285.178 160.495 287.741 163.703 288.279C167.227 288.514 168.771 285.034 169.808 282.274C171.085 278.91 172.078 275.446 172.754 271.911C173.554 267.972 173.746 263.936 173.34 259.929C174.797 257.438 176.168 254.904 177.806 252.537C179.81 249.639 182.233 247.041 184.424 244.284C188.833 238.732 193.01 232.961 196.967 227.069L196.969 227.078C199.565 223.251 201.898 219.266 203.97 215.131C203.693 225.902 202.707 236.637 201.022 247.274C193.298 246.909 186.183 251.468 183.294 258.637C183.153 258.924 183.168 259.254 183.345 259.521C183.509 259.781 183.803 259.94 184.114 259.931C190.481 259.315 196.322 256.146 200.311 251.143C199.761 253.97 199.124 256.774 198.398 259.556C197.433 263.295 196.222 266.961 194.756 270.527C189.613 272.531 184.987 275.674 181.226 279.713C179.107 281.748 177.824 284.497 177.624 287.434C177.513 290.18 179.42 292.593 182.113 293.135C184.514 293.305 186.912 292.708 188.964 291.442C189.584 293.499 190.87 295.302 192.617 296.552C194.442 297.605 196.705 297.567 198.5 296.445C200.195 295.517 201.591 294.098 202.485 292.375C203.251 293.029 204.104 293.575 205.025 293.987C206.018 294.528 207.102 294.848 208.231 294.931C210.061 294.961 211.798 294.1 212.881 292.62C213.989 291.061 214.561 289.188 214.504 287.274C214.195 284.106 212.809 281.141 210.575 278.874C208.774 277.014 206.613 275.543 204.227 274.538C201.636 273.337 199.123 271.968 196.719 270.433C199.292 263.73 201.189 256.779 202.366 249.695C203.025 246.014 203.555 242.304 204.001 238.59C205.705 243.9 209.742 248.128 214.969 250.072C215.254 250.203 215.583 250.189 215.853 250.021C216.111 249.847 216.269 249.554 216.27 249.24C215.344 241.94 211.067 235.483 204.7 231.781C204.922 229.322 205.105 226.866 205.267 224.407C205.549 219.956 205.748 215.502 205.865 211.044C206.194 210.271 206.522 209.498 206.836 208.71C208.438 204.655 209.904 200.523 211.682 196.544L211.691 196.541C213.943 198.671 216.071 200.922 218.067 203.296C214.219 210.063 215.083 218.526 220.226 224.371C220.438 224.556 220.714 224.629 220.982 224.583C221.248 224.529 221.488 224.361 221.612 224.118C223.574 219.23 223.833 213.827 222.346 208.781C226.16 214.142 229.486 219.842 232.27 225.807C232.274 225.978 232.287 226.146 232.301 226.313L232.297 226.335C231.846 230.414 230.714 234.389 228.96 238.097C227.675 241.564 225.723 246.419 228.088 249.848L228.085 249.839C229.084 251.41 230.942 252.22 232.774 251.875C234.641 251.357 236.116 249.933 236.709 248.093C237.16 246.786 237.385 245.408 237.364 244.019C237.445 244.145 237.523 244.262 237.604 244.387L237.607 244.396C238.76 246.13 240.615 247.275 242.689 247.53C244.627 247.707 246.51 246.83 247.613 245.222C250.085 241.323 246.324 236.916 243.741 234.194C243.374 233.806 242.982 233.436 242.605 233.051C243.157 233.32 243.711 233.597 244.278 233.85L244.287 233.847C245.944 234.63 247.67 235.28 249.431 235.818C251.014 236.433 252.811 236.2 254.193 235.21C256.899 232.865 255.197 229.011 252.885 227.133C250.319 225.407 247.236 224.596 244.145 224.829C242.604 224.818 241.076 224.944 239.557 225.189C237.665 225.472 235.737 225.423 233.859 225.054C231.224 219.365 228.13 213.914 224.6 208.745C221.066 203.689 217 199.025 212.469 194.834C213.174 193.344 213.94 191.884 214.788 190.459C218.286 184.147 223.405 178.884 229.605 175.195C231.187 177.823 233.128 180.215 235.355 182.302C242.621 188.994 251.956 192.3 261.139 195.383C261.387 195.465 261.639 195.556 261.888 195.638L261.9 195.644C261.898 195.796 261.946 195.943 262.026 196.069C265.345 201.872 266.958 208.476 266.722 215.147C266.436 221.855 265.569 228.516 264.13 235.067C263.925 236.225 263.748 237.374 263.592 238.527L263.579 238.551C254.997 252.725 248.065 267.847 242.927 283.617C241.899 287.032 241.086 290.52 240.476 294.043C237.875 294.099 235.271 293.994 232.676 293.724C230.25 293.35 227.773 293.355 225.338 293.742C222.219 294.328 219.377 295.908 217.212 298.241C214.741 300.814 214.425 304.78 216.457 307.708C217.963 309.248 220.071 310.049 222.22 309.906C222.853 309.925 223.493 309.871 224.113 309.753C223.868 313.119 225.494 317.21 228.796 318.265C231.475 318.731 234.207 317.884 236.145 315.978C237.114 317.801 238.516 319.365 240.218 320.538C242.471 321.98 245.442 321.532 247.165 319.492C249.029 317.073 249.704 313.944 249.013 310.969C248.563 308.15 247.72 305.395 246.503 302.802C245.328 300.084 243.846 297.514 242.1 295.131C243.219 288.5 245.017 281.996 247.457 275.73C247.836 278.33 248.621 280.84 249.789 283.186C251.326 286.496 253.667 289.377 256.6 291.551C256.838 291.758 257.164 291.825 257.457 291.731C257.76 291.634 257.985 291.39 258.058 291.083C259.357 283.434 255.684 275.802 248.894 272.043C251.832 264.869 255.119 257.836 258.769 250.99C260.17 248.325 261.613 245.698 263.077 243.073C262.727 247.09 262.615 251.122 262.755 255.153C262.991 262.098 263.527 269.067 264.324 275.963C264.773 279.886 265.564 283.8 265.866 287.738C266.114 290.906 265.947 294.075 265.89 297.239L265.893 297.249C261.899 302.738 259.132 309.027 257.799 315.686C257.11 318.709 255.77 323.014 258.196 325.594C260.532 328.081 264.469 327.111 266.854 325.243C269.056 323.374 270.641 320.872 271.382 318.075C271.558 318.403 271.734 318.731 271.916 319.047L271.925 319.044C273.014 321.396 275.339 322.936 277.927 323.026C280.585 322.83 282.853 321.04 283.658 318.506C284.453 315.844 284.047 312.97 282.538 310.632C283.847 310.93 285.204 310.869 286.484 310.478C288.019 309.996 289.256 308.87 289.897 307.4C290.486 305.643 290.027 303.707 288.708 302.401C286.073 299.706 282.697 297.855 279.008 297.077C275.272 296.182 271.362 296.293 267.67 297.397C267.718 294.519 267.863 291.63 267.719 288.753C267.533 285.242 266.835 281.773 266.393 278.284C265.512 271.314 264.952 264.271 264.623 257.255C264.354 252.163 264.457 247.062 264.941 241.98C270.602 252.151 278.02 261.241 286.856 268.825L286.85 268.837C286.725 270.465 286.338 272.066 285.709 273.573C285.23 274.728 284.648 275.846 284.227 277.023C282.935 280.027 282.553 283.346 283.129 286.56C283.931 289.469 286.534 292.538 289.871 291.649C293.317 290.726 292.908 286.457 292.662 283.734C292.528 282.31 292.337 280.894 292.1 279.494C292.172 279.622 292.246 279.76 292.318 279.889C294.103 283.12 296.585 287.513 300.691 287.824C302.739 287.935 304.662 286.772 305.509 284.902C306.388 282.88 306.195 280.545 304.988 278.707C304.71 278.25 304.392 277.826 304.034 277.435C305.108 277.758 306.221 277.947 307.335 278.014C309.219 278.148 311.052 277.429 312.343 276.063C313.559 274.652 313.75 272.628 312.818 271.016C310.797 267.334 305.681 267.469 302.072 267.666C297.561 267.919 292.878 268.835 288.432 267.652L288.39 267.646C288.277 267.611 288.171 267.564 288.059 267.529L288.056 267.52C283.897 263.888 280.008 259.966 276.416 255.768C277.219 256.066 278.049 256.256 278.898 256.347C281.443 256.4 283.963 255.804 286.215 254.627C291.044 252.713 295.092 249.219 297.683 244.716C297.814 244.431 297.799 244.102 297.632 243.832C297.467 243.572 297.164 243.416 296.853 243.424C292.538 243.595 288.296 244.623 284.379 246.446C280.651 248.067 277.217 250.291 274.219 253.054C270.797 248.629 267.817 243.88 265.32 238.875C265.429 238.112 265.548 237.345 265.675 236.576C267.071 230.018 268.005 223.376 268.47 216.693C268.89 209.71 267.455 202.746 264.315 196.49C268.074 197.803 271.733 199.37 275.273 201.198C279.924 203.651 284.364 206.454 288.757 209.334C293.737 212.591 298.64 215.954 303.376 219.553C305.58 221.314 307.894 222.949 310.309 224.42C312.321 225.585 314.393 226.62 316.443 227.712C316.458 227.727 316.476 227.752 316.491 227.767C311.578 232.57 309.22 239.406 310.139 246.212C310.243 248.05 311.01 249.777 312.299 251.083C313.603 252.121 315.37 252.363 316.912 251.716C318.88 250.883 320.337 249.151 320.821 247.064C321.93 249.166 323.767 250.792 325.981 251.639C328.51 252.618 331.393 251.986 333.276 250.037C335.068 247.803 335.185 244.67 333.57 242.315C333.328 241.877 333.056 241.438 332.787 241.009L332.778 241.012C335.077 241.559 337.468 241.57 339.777 241.042C342.954 240.478 345.435 237.962 345.949 234.773C346.157 231.196 342.652 229.731 339.821 228.788C336.383 227.626 332.85 226.766 329.259 226.229C325.282 225.594 321.225 225.56 317.24 226.131C315.457 225.175 313.646 224.259 311.884 223.277L311.881 223.268C309.741 222.053 307.701 220.674 305.765 219.151C301.568 215.905 297.253 212.829 292.823 209.9C285.993 205.132 278.778 200.933 271.256 197.348C282.016 197.183 292.772 197.728 303.46 198.982C303.433 206.779 308.357 213.737 315.723 216.299C315.985 216.357 316.266 216.287 316.481 216.107C316.69 215.939 316.806 215.669 316.8 215.398C315.927 209.052 312.522 203.327 307.359 199.531C310.211 199.971 313.041 200.5 315.867 201.11C319.626 201.917 323.336 202.983 326.955 204.3C329.147 209.302 332.429 213.762 336.562 217.342C338.665 219.388 341.438 220.592 344.37 220.744C347.099 220.799 349.484 218.9 350.032 216.226C350.175 213.742 349.487 211.282 348.079 209.226C350.054 208.541 351.753 207.247 352.954 205.537C354.02 203.657 353.934 201.338 352.723 199.552C351.719 197.872 350.245 196.524 348.472 195.697C349.031 194.981 349.491 194.206 349.853 193.382C350.367 192.367 350.691 191.262 350.792 190.127C350.831 188.294 349.991 186.56 348.535 185.46C346.928 184.327 344.991 183.775 343.031 183.878C339.831 184.277 336.875 185.782 334.673 188.127C332.886 189.996 331.493 192.213 330.594 194.645C329.492 197.295 328.224 199.867 326.773 202.345C319.93 200.029 312.867 198.412 305.685 197.529C297.302 196.436 288.869 195.814 280.415 195.664C275.96 195.556 271.497 195.551 267.043 195.604C266.767 195.501 266.495 195.376 266.209 195.275C257.042 191.955 247.503 189.432 239.568 183.491L239.58 183.497C235.701 180.615 232.498 176.939 230.17 172.709C227.815 168.174 225.748 163.497 223.977 158.704C220.864 150.862 218.127 142.899 215.766 134.785C223.086 145.586 230.382 156.628 240.221 165.287C241.394 166.327 242.616 167.331 243.876 168.292L243.87 168.304C243.645 175.801 247.303 182.882 253.543 187.04C254.971 188.119 256.797 188.545 258.556 188.193C260.125 187.659 261.318 186.366 261.711 184.753C262.179 182.933 261.872 180.999 260.857 179.413C262.121 179.725 263.426 179.822 264.728 179.688C268.773 181.101 272.962 182.083 277.211 182.622C283.909 183.507 290.724 182.899 297.153 180.836C297.247 180.876 297.338 180.908 297.441 180.946L297.453 180.952L297.456 180.961C300.89 182.995 303.959 185.591 306.538 188.648C309.101 191.245 312.556 194.982 316.561 194.698C318.484 194.637 320.164 193.41 320.83 191.608C321.292 189.801 320.817 187.88 319.553 186.495C318.488 185.319 317.189 184.391 315.731 183.756L315.819 183.748C317.976 183.501 319.914 182.293 321.087 180.46C322.133 178.708 322.087 176.518 320.983 174.808C318.428 171.228 313.213 172.598 309.752 173.759C309.158 173.959 308.568 174.169 307.969 174.381C308.553 173.901 309.128 173.423 309.694 172.917L309.697 172.927C311.059 171.781 312.323 170.516 313.474 169.156C314.489 168.061 314.974 166.58 314.796 165.11C314.447 163.614 313.327 162.425 311.852 161.988C310.249 161.562 308.529 161.75 307.055 162.516C304.249 164.145 302.118 166.71 301.012 169.756C300.375 171.143 299.865 172.582 299.468 174.055C298.945 175.831 298.125 177.5 297.039 179.001C287.511 181.998 277.277 181.913 267.799 178.764C270.185 177.593 271.657 175.118 271.55 172.452C271.219 169.716 269.163 167.503 266.455 166.975C265.887 166.814 265.307 166.676 264.717 166.572C266.629 165.311 268.247 163.639 269.451 161.685C271.256 159.052 271.253 155.573 269.446 152.936C267.11 150.196 263.653 151.498 260.978 152.902C254.62 156.257 249.12 161.026 244.882 166.827C244.265 166.357 243.656 165.875 243.061 165.378L243.052 165.381C237.537 160.676 232.589 155.345 228.293 149.491C223.346 142.996 218.891 136.141 214.249 129.427C213.699 127.398 213.167 125.363 212.663 123.32C212.387 122.205 210.702 122.755 210.976 123.861C211.462 125.85 211.988 127.836 212.52 129.809L212.514 129.821C212.519 129.931 212.554 130.041 212.608 130.145C214.716 137.915 217.167 145.585 219.961 153.156C214.558 150.631 208.686 149.227 202.721 149.047C200.026 148.971 196.204 148.852 194.802 151.699L194.811 151.696C193.814 154.484 194.894 157.598 197.401 159.17C199.311 160.52 201.553 161.328 203.881 161.521C203.73 161.651 203.567 161.774 203.416 161.903C201.464 163.288 200.462 165.653 200.816 168.018C201.442 170.376 203.475 172.111 205.909 172.352C208.325 172.568 210.714 171.751 212.487 170.089C212.488 171.293 212.816 172.472 213.414 173.515C214.206 174.848 215.573 175.735 217.112 175.899C218.69 175.929 220.164 175.132 221.01 173.798C222.857 171.011 223.854 167.747 223.903 164.403C223.916 164.035 223.911 163.672 223.906 163.31C224.906 165.731 225.951 168.137 227.072 170.498C227.581 171.579 228.124 172.639 228.706 173.666L228.697 173.669C223.202 176.878 218.543 181.337 215.102 186.69C211.486 192.412 208.568 198.547 206.398 204.959C205.186 208.15 203.941 211.331 202.438 214.403C200.864 217.538 199.121 220.586 197.2 223.519C193.278 229.612 189.005 235.525 184.56 241.25C182.084 244.442 179.312 247.435 176.942 250.704C175.008 253.378 173.431 256.282 171.763 259.123L171.738 259.141C167.157 254.067 160.464 251.43 153.652 252.017C151.766 252.035 149.964 252.755 148.579 254.019C147.471 255.325 147.183 257.137 147.832 258.72C148.614 260.654 150.246 262.113 152.256 262.671C150.125 263.689 148.439 265.434 147.504 267.595C146.444 270.029 146.893 272.849 148.653 274.833L148.654 274.829Z" fill="#B1DEDF" fill-opacity="0.5"/>
</svg>
