<svg width="399" height="357" viewBox="0 0 399 357" fill="none" xmlns="http://www.w3.org/2000/svg">
<path d="M175.887 200.244C195.277 194.374 212.996 183.985 227.597 169.947C227.154 165.433 222.088 163.516 218.801 161.272C206.153 151.993 219.763 142.175 225.807 162.222L225.806 162.215C226.043 163.036 226.439 163.803 226.965 164.475C227.947 165.61 228.752 166.884 229.36 168.257C233.96 163.789 238.257 159.018 242.224 153.97C244.421 146.731 241.857 137.887 233.818 135.923C231.092 139.336 226.265 134.411 228.551 131.201L228.544 131.202C229.465 129.661 231.4 129.059 233.036 129.807C234.666 130.556 235.476 132.413 234.912 134.114C237.888 135.047 240.483 136.925 242.3 139.474C241.43 134.993 239.74 130.712 237.31 126.852C235.252 127.692 232.897 126.855 231.831 124.914C230.758 122.967 231.31 120.533 233.11 119.239C234.911 117.945 237.4 118.208 238.896 119.841C240.387 121.483 240.421 123.981 238.974 125.662C240.862 128.639 242.332 131.862 243.347 135.236C244.018 133.694 245.018 132.323 246.269 131.21C244.83 129.81 244.63 127.565 245.803 125.933C246.976 124.301 249.164 123.775 250.949 124.698C252.732 125.613 253.576 127.701 252.929 129.603C252.282 131.505 250.337 132.647 248.364 132.283L248.077 132.341C242.018 136.74 245.986 144.426 244.816 150.578C273.515 115.219 247.16 118.963 243.671 86.1784L243.672 86.1859C243.522 84.1758 244.593 82.2707 246.388 81.3489C248.177 80.4281 250.352 80.6703 251.896 81.9629C258.52 86.4817 258.722 100.551 256.862 109.074L256.863 109.082C256.447 111.108 256.689 113.226 257.549 115.114C259.056 118.384 259.979 121.901 260.282 125.488C264.013 118.262 267.349 110.829 270.412 103.3L270.419 103.299C270.03 99.0873 268.625 95.036 266.305 91.5014C263.16 91.3213 260.693 86.656 264.375 85.1701L264.383 85.169C265.832 84.519 267.541 84.9905 268.45 86.295C269.359 87.5995 269.216 89.3728 268.096 90.5041C269.901 93.2819 271.192 96.372 271.898 99.6106C274.328 93.4666 276.5 87.3766 278.736 81.1555C277.938 76.194 275.248 71.1601 270.434 69.0541L270.443 69.0604C269.821 70.5721 268.223 71.449 266.616 71.1518C265.008 70.8473 263.829 69.462 263.803 67.8202C263.81 65.9989 265.165 64.4682 266.967 64.2431C268.774 64.0096 270.47 65.1504 270.931 66.9089C272.265 67.5581 273.502 68.3734 274.626 69.3423C274.7 66.9044 273.886 64.5161 272.329 62.634C268.615 63.1538 265.679 57.5881 269.384 55.5983C273.635 54.0574 276.465 57.4473 273.84 61.2771L273.839 61.2697C276.133 64.027 277.105 67.6656 276.475 71.2032C278.076 73.0712 279.276 75.2573 279.985 77.608C286.37 64.2189 282.834 55.1633 271.994 45.7497C270.518 44.3559 268.675 42.8957 268.572 40.6892L268.573 40.6966C268.505 39.8422 268.773 38.9981 269.327 38.3461C269.881 37.6941 270.671 37.2949 271.518 37.2284C277.125 37.1448 280.201 48.7417 281.313 53.2161L281.32 53.215C282.739 55.2849 283.88 57.5329 284.714 59.9027C285.668 54.3899 285.611 48.7559 284.544 43.2661C262.193 18.3634 283.833 19.2396 286.89 37.0208C288.443 34.9902 291.007 31.7081 293.885 33.2479C298.119 35.8429 290.375 40.8356 287.397 42.6708L287.398 42.6783C288.276 47.1576 288.479 51.7458 288.008 56.2836L291.95 52.1802C290.235 48.6911 293.487 44.1833 297.141 46.8502L297.133 46.8513C298.434 47.9377 298.801 49.7785 298.025 51.2755C297.243 52.7809 295.529 53.5388 293.894 53.1093L287.591 59.668C286.146 67.6737 283.958 75.5257 281.073 83.1334C283.811 80.4547 286.857 78.1164 290.153 76.173C291.075 75.2988 296.44 71.4293 297.464 68.9548C299.925 65.1421 301.187 58.089 306.4 57.549C307.178 57.6293 307.889 58.0231 308.361 58.6423C308.833 59.2615 309.028 60.0514 308.901 60.8214C305.238 74.8179 287.076 76.7489 279.374 87.9323C275.823 97.8242 271.962 107.619 267.547 117.156C269.845 115.893 272.253 114.856 274.748 114.049C276.457 110.835 278.661 108.289 279.773 104.429C276.836 102.299 279.111 97.1945 282.756 98.6872C286.003 99.9061 285.1 105.563 281.603 105.352L281.594 105.346C280.612 108.148 279.258 110.801 277.569 113.239C281.89 112.165 286.362 111.797 290.798 112.147C292.268 108.195 297.951 108.411 297.625 113.064C297.312 116.486 291.678 118.052 290.878 114.191C287.461 113.915 284.021 114.083 280.644 114.681C282.889 116.596 284.488 119.162 285.22 122.018C288.488 121.512 289.448 126.183 286.541 127.431C283.576 128.847 280.599 125.032 283.314 122.812C282.531 119.767 280.733 117.087 278.227 115.195C273.873 116.251 269.734 118.033 265.982 120.47C258.952 135.73 249.798 149.914 238.795 162.61C243.97 161.363 249.331 161.058 254.616 161.705C268.67 157.866 274.234 140.482 288.278 136.932C297.348 136.928 288.997 150.757 286.028 154.016C272.082 171.703 252.223 158.448 235.515 166.167L235.523 166.173C231.037 170.897 226.248 175.317 221.173 179.401C226.801 178.95 236.212 183.035 239.219 175.432C237.173 172.918 240.096 169.051 242.997 170.845C245.52 172.491 243.68 176.908 241.011 176.407L241.019 176.405C240.08 178.336 238.616 179.952 236.789 181.068C240.625 182.016 244.351 183.345 247.912 185.04C248.246 184.178 248.924 183.493 249.781 183.144C250.647 182.794 251.607 182.824 252.454 183.213C253.292 183.595 253.932 184.318 254.231 185.198C254.521 186.073 254.438 187.033 254 187.85C252.457 191.464 247.046 191.442 247.117 186.919L247.119 186.926C241.585 184.269 235.66 182.542 229.568 181.818C230.859 183.346 231.68 185.225 231.925 187.213L232.002 187.27C233.735 186.941 235.437 187.975 235.955 189.657C236.475 191.346 235.638 193.148 234.022 193.853C232.462 194.474 230.685 193.952 229.714 192.589C228.742 191.218 228.844 189.367 229.943 188.102C229.831 185.434 228.438 182.982 226.201 181.52C223.6 181.365 220.987 181.393 218.387 181.601C205.967 191.263 191.851 198.532 176.76 203.035C176.002 203.24 175.217 202.812 174.975 202.06C174.741 201.306 175.145 200.51 175.886 200.247L175.887 200.244Z" fill="#F8F7B5" fill-opacity="0.5"/>
<path d="M302.036 124.589C295.079 119.448 289.539 121.828 287.727 122.881C286.749 122.279 285.742 121.735 284.706 121.243C287.959 121.671 294.135 121.665 295.339 115.698C296.989 107.524 296.468 109.151 296.468 109.151L296.474 109.145C293.782 108.879 291.067 109.377 288.648 110.586C285.597 112.3 283.392 118.673 282.836 120.415C272.295 116.126 259.798 116.716 254.107 117.301L254.102 117.295C262.559 110.922 271.924 105.857 281.892 102.268C289.898 102.771 297.075 102.065 301.035 98.563C305.162 94.9106 305.006 86.1757 305.006 86.1757C305.006 86.1757 300.242 84.7691 287.861 91.7326C282.396 94.8062 281.181 98.8466 280.932 100.89L280.92 100.896C266.102 106.36 252.632 114.968 241.454 126.127C241.194 122.428 240.053 119.482 240.024 114.637C239.984 108.183 242.867 101.329 245.813 95.6279C248.013 98.9042 251.387 101.202 255.242 102.047C261.025 102.997 267.526 97.0287 267.526 97.0287C267.526 97.0287 256.331 91.4139 246.977 93.8509V93.8451C249.691 89.7063 252.754 85.8107 256.134 82.1929C260.8 82.8933 265.367 80.4274 267.335 76.1382C269.795 70.9749 266.391 59.1844 266.391 59.1844C263.705 60.9499 261.159 62.9121 258.762 65.0596C253.315 70.2172 252.922 75.4152 254.137 80.9776C254.305 81.7591 247.417 89.6777 245.263 93.0292C245.518 89.5272 245.692 83.7561 243.834 80.7171C240.928 75.9648 230.289 75.8607 230.289 75.8607C230.289 75.8607 229.623 84.8559 234.04 89.3421C236.691 92.3347 240.343 94.2565 244.314 94.7542C241.709 99.6744 239.822 104.942 238.717 110.401C238.607 110.031 238.497 109.66 238.381 109.29H238.375C235.232 99.3567 229.93 90.2405 222.85 82.5927C221.125 80.7173 218.555 78.2398 216.72 76.4801C220.222 75.1893 224.042 73.5048 226.138 70.3848L226.132 70.379C228.638 66.8827 229.622 62.524 228.864 58.2928C228.303 55.8443 227.174 52.0411 227.174 52.0411C227.174 52.0411 223.956 53.9339 221.733 55.4679C216.008 59.4157 214.526 67.7858 214.764 74.6564C210.225 70.5466 205.901 66.211 201.797 61.6613C200.825 60.521 200.31 59.0623 200.356 57.5631C200.478 52.4346 199.87 50.0555 197.688 46.9008C194.359 42.0905 183.06 40.2904 183.06 40.2904C183.06 40.2904 181.306 50.1598 185.601 55.2541C188.785 59.0282 196.518 58.5361 198.66 61.0251C202.532 65.5169 209.889 72.3358 214.213 76.3697C206.717 74.1122 194.995 72.8965 188.721 77.7242C188.27 78.0715 187.957 78.8529 188.519 79.2986C192.86 82.7659 198.301 85.5791 204.02 85.0812L204.026 85.0928C208.79 84.8208 213.073 82.0829 215.319 77.8688C217.669 80.1031 219.973 82.3781 222.144 84.7919C225.582 88.6064 228.575 92.803 231.064 97.2949C232.586 100.045 233.912 102.892 235.041 105.827C230.207 101.179 223.834 98.4758 217.137 98.2327C215.95 98.1458 214.856 97.5496 214.139 96.5945C209.988 91.2807 207.106 90.777 199.395 90.835H199.39C197.254 90.8408 195.123 91.1707 193.08 91.8017C193.08 91.8017 196.223 101.729 200.981 103.512C205.832 105.329 209.728 101.457 214.827 100.189C221.091 99.6565 232.893 103.963 237.085 112.027V112.032C237.583 114.035 237.976 116.061 238.266 118.104C237.502 117.248 236.662 116.472 235.753 115.783C230.197 111.459 224.315 119.968 224.148 120.212C224.281 120.032 225.467 118.938 231.823 123.991C236.361 127.603 238.295 125.74 239.093 124.084C239.279 125.572 239.435 126.932 239.556 128.026H239.551C234.382 133.357 229.699 139.151 225.572 145.328C226.509 141.93 227.297 135.094 218.735 134.446C207.517 133.601 203.188 132.072 203.188 132.072C203.182 132.072 202.644 142.492 208.044 145.982C213.653 149.611 218.128 149.802 224.153 147.504C220.599 153.09 214.654 163.116 213.219 166.977H213.213C213.126 167.226 213.433 167.435 213.636 167.261L218.238 162.896C218.926 162.248 219.471 161.455 219.824 160.575C222.782 153.264 226.654 146.359 231.343 140.021C235.377 138.672 239.585 137.925 243.834 137.804C242.074 138.481 240.037 140.2 239.007 144.437C236.981 152.773 237.548 154.723 237.548 154.723L237.554 154.729C240.442 153.259 243.192 151.522 245.762 149.548C249.235 146.787 250.479 140.924 247.579 138C249.924 138.249 252.199 138.95 254.271 140.073C257.339 141.763 260.32 143.604 263.202 145.589C261.738 146.064 259.133 147.812 261.506 154.231L261.512 154.237C262.896 158.376 264.707 162.37 266.907 166.144C266.907 166.144 274.293 156.662 274.299 153.444C274.316 146.897 268.551 145.659 265.663 145.444H265.668C262.56 143.048 259.261 140.924 255.805 139.083C257.142 139.094 258.473 138.898 259.753 138.492C265.616 136.825 262.688 128.368 262.601 128.125C262.653 128.311 262.815 129.7 256.031 131.541C249.264 133.381 252.54 137.155 253.05 137.688C245.976 134.828 237.357 136.565 233.097 137.763V137.775C238.555 130.933 244.755 124.716 251.58 119.246C253.855 118.916 269.42 116.901 281.9 121.793C278.305 122.84 269.663 126.105 272.453 132.704C275.944 140.958 275.469 139.216 275.469 139.216V139.21C278.537 138.139 281.269 136.275 283.393 133.815C285.5 130.979 284.337 125.069 283.712 122.574V122.568C284.835 123.084 285.923 123.668 286.976 124.322C287.081 127.558 290.774 134.348 295.37 135.315C300.533 136.397 310.576 130.892 310.576 130.892L302.036 124.589Z" fill="#F8F7B5" fill-opacity="0.5"/>
<path d="M141.967 120.866C141.801 111.283 151.664 102.576 146.367 92.983C142.637 85.4272 129.885 86.0307 129.232 95.2857C123.158 92.6599 121.399 101.484 123.18 105.637L123.174 105.624C124.979 110.017 127.777 113.922 131.36 117.038C135.131 121.376 139.042 125.748 142.426 130.346C136.267 127.523 129.989 124.946 123.804 122.188C122.434 119.193 119.98 116.671 118.78 113.635C123.248 106.506 122.952 97.3849 118.008 90.5676C115.105 85.5061 104.537 84.557 106.63 92.5726C93.8299 90.4576 94.0849 107.822 105.651 109.225C117.519 110.039 114.532 112.264 120.413 120.669C106.431 113.777 91.2802 106.723 83.6967 92.3815C90.9748 73.8013 77.1063 69.7951 75.4056 79.8658C70.5961 76.6749 63.5549 83.1893 68.3267 87.8403C71.9174 91.4834 78.4522 89.0493 81.5343 93.0899C86.8846 103.916 96.4227 110.418 106.584 116.154L106.592 116.135C99.5236 114.74 92.7722 112.061 86.676 108.236C82.6445 105.312 86.0502 97.5074 81.1673 94.7459L81.1579 94.7421C79.3683 93.3708 76.8401 93.5178 75.1996 95.0796C73.572 96.6357 73.3272 99.1601 74.6196 101.01C63.266 98.1733 58.6607 113.922 72.1674 112.768C76.8543 112.414 81.3753 110.944 86.0377 110.406C89.0085 112.238 92.0981 113.857 95.2835 115.262C85.0772 117.779 68.8293 111.936 65.36 125.856C63.6724 133.736 71.7147 142.666 79.7509 139.074L79.7565 139.087C81.3446 140.061 83.3358 140.136 84.999 139.282C86.6622 138.429 87.7625 136.771 87.898 134.902C86.9013 129.391 83.3895 123.638 88.1421 118.666C98.0601 116.296 108.502 117.424 117.679 121.881C87.9312 114.802 88.6886 149.948 110.746 143.56C117.624 146.223 120.301 138.684 117.03 133.476L117.034 133.466C115.157 130.837 114.865 127.387 116.274 124.466C123.945 122.06 137.575 131.39 145.52 134.228L145.525 134.242C155.137 138.512 163.885 144.502 171.346 151.911C167.007 149.891 162.292 148.759 157.505 148.571C149.646 141.56 137.216 138.927 127.571 143.755C123.078 146.001 119.409 150.641 121.406 155.865L121.396 155.861C123.015 160.037 127.643 162.205 131.883 160.754C130.72 172.897 148.054 175.941 151.43 164.114C152.976 159.619 153.019 153.584 157.431 150.803C163.945 151.07 170.254 153.189 175.604 156.913C183.051 166.786 187.031 178.964 189.404 191.004L189.414 191.008C185.848 185.91 179.669 183.33 173.546 184.378C170.698 177.295 168.055 167.814 159.152 167.072C155.699 166.827 152.323 168.11 149.912 170.587C147.506 173.078 146.325 176.495 146.689 179.929C141.616 184.827 141.803 190.234 144.787 193.973C143.928 193.771 143.067 193.602 142.215 193.382C135.277 190.76 120.832 189.232 117.065 183.246L117.071 183.26C117.779 180.505 119.949 178.358 122.705 177.668C127.859 176.037 130.366 169.468 124.248 167.337C113.133 150.491 92.5769 173.583 116.532 185.808L116.527 185.795C107.844 183.546 100.209 178.351 94.9248 171.102C94.5761 165.063 100.208 163.218 104.014 160.097L104.023 160.1C104.991 158.772 105.206 157.034 104.579 155.515C103.951 153.997 102.572 152.91 100.949 152.654C97.6215 145.675 87.1439 147.067 83.7759 153.303C78.1627 164.606 92.3704 169.949 97.7716 177.452C94.8309 176.582 91.8337 175.908 88.8084 175.441C85.9976 172.415 83.8028 168.861 80.8697 165.95C72.4884 157.485 66.5926 170.642 75.8064 175.223L75.8102 175.213C73.8906 175.724 72.6135 177.551 72.8189 179.524C73.0205 181.505 74.6368 183.037 76.613 183.15C81.4619 184.084 83.628 176.92 87.9947 177.257C94.2621 178.168 100.311 180.227 105.827 183.318C95.7486 181.363 85.6703 180.282 75.9092 184.474C71.5445 185.416 68.5623 180.061 64.0751 180.462C58.2354 180.858 59.2341 189.233 64.2696 189.838C59.6772 197.551 71.2344 202.774 76.9624 186.185C90.2071 180.906 104.387 184.818 117.673 188.176C108.944 190.443 109.679 193.632 101.271 187.418C92.7185 181.757 82.6502 193.245 92.4273 199.122C86.4557 203.289 94.0759 208.686 98.9022 206.945L98.9116 206.949C106.1 205.202 111.504 199.257 112.565 191.934C115.106 190.58 118.182 190.292 120.803 189.067C126.52 190.753 132.192 192.606 137.926 194.222C133.042 195.372 127.933 196.071 122.933 196.824L122.93 196.834C118.763 196.872 114.66 197.897 110.945 199.809C107.387 201.576 103.542 208.484 109.098 210.192C104.255 216.756 112.448 224.436 119.25 221.496C128.262 218.086 126.62 206.646 132.198 200.322L132.211 200.316C134.769 197.472 138.309 195.697 142.114 195.362C143.979 195.834 145.874 196.232 147.767 196.606C154.195 200.587 165.381 199.609 173.509 186.58C181.737 185.347 186.971 189.91 190.46 196.812C192.082 206.387 193.588 216.145 199.842 223.946C194.754 226.259 188.773 225.342 184.602 221.62C184.469 193.488 153.896 194.753 158.623 213.306C156.549 216.005 155.766 219.494 156.499 222.825C157.232 226.155 159.408 228.992 162.429 230.561C170.296 234.549 177.422 227.959 183.486 223.479L183.496 223.483C188.09 227.538 194.627 228.568 200.256 226.133C192.018 235.009 182.37 243.18 171.004 247.614C164.565 247.978 158.177 246.494 152.565 243.342C150.298 238.71 153.393 233.622 154.414 229.048C157.71 217.365 141.564 210.94 136.26 221.744L136.256 221.753C133.449 218.336 128.438 217.752 124.919 220.431C120.541 223.782 121.216 229.581 123.825 233.793C129.428 242.84 141.23 247.069 151.46 245.26L151.473 245.255C155.591 247.579 160.135 249.058 164.826 249.623C154.719 251.972 144.272 252.47 133.987 251.088C125.846 249.372 109.556 250.134 104.358 244.144C104.68 240.962 106.709 238.212 109.652 236.974C115.096 234.289 116.751 226.571 109.589 225.247C94.373 208.465 75.527 237.584 104.191 247.049C94.1766 246.026 84.8236 241.575 77.7223 234.441C76.313 227.803 82.2355 224.796 85.9257 220.678C86.7771 219.041 86.7223 217.074 85.7578 215.497C84.8064 213.915 83.0959 212.947 81.2515 212.941C76.3648 205.764 64.9792 209.099 62.3215 216.591C58.0157 230.088 74.6969 233.592 81.9654 240.989L81.9617 240.999C78.5538 240.532 75.1197 240.294 71.6781 240.295C68.0423 237.42 65.013 233.849 61.2527 231.121C50.5091 223.153 46.2109 238.762 57.22 242.269C55.1724 243.155 54.0799 245.395 54.6376 247.552C55.1915 249.718 57.2448 251.14 59.462 250.923C65.006 251.13 66.1793 242.815 71.079 242.448C78.1904 242.397 85.2452 243.634 91.9084 246.124C80.3983 245.672 69.024 246.193 58.9213 252.521C54.2401 254.309 50.009 248.88 45.111 250.089C38.6931 251.521 41.2384 260.646 46.9312 260.454C43.1527 269.792 56.865 273.616 60.3888 254.233C74.1796 246.113 90.5742 248.038 105.878 249.494C96.5841 253.501 97.9387 256.916 87.5588 251.454C77.1091 246.63 67.9038 261.096 79.7529 265.944C73.8456 271.59 83.2138 276.276 88.2699 273.524L88.251 273.517C95.9312 270.35 100.913 262.837 100.845 254.539C103.434 252.602 106.796 251.762 109.495 249.957C116.121 250.848 122.731 251.94 129.364 252.758C124.136 254.873 118.593 256.524 113.169 258.2L113.182 258.195C108.561 258.958 104.18 260.789 100.394 263.536C96.7429 266.107 93.6576 274.423 100.119 275.368C95.8697 283.48 106.269 290.589 113.321 286.177C122.738 280.853 118.972 268.443 124.071 260.473C126.416 256.876 130.045 254.307 134.211 253.286C142.389 254.229 150.655 254.159 158.81 253.083C147.344 264.296 154.638 270.754 138.202 267.567C120.115 265.556 122.089 292.228 139.459 287.179C143.227 296.88 159.887 287.897 155.893 276.959C155.168 274.647 153.169 272.843 152.549 270.541C151.624 263.265 158.06 257.58 162.489 252.435C194.946 246.602 202.757 217.014 227.297 205.787C228.651 205.323 227.717 203.289 226.372 203.756C216.919 207.011 210.539 214.523 204.14 221.807C203.413 222.259 202.676 222.653 201.947 223.028C201.932 223.011 201.93 222.989 201.909 222.958C186.716 200.22 195.71 170.547 170.824 148.248C169.742 141.445 167.214 133.125 171.885 127.345C173.647 125.7 176.327 125.199 178.183 123.592C187.456 116.277 177.863 99.6679 169.449 106.038C157.143 92.4407 141.26 114.397 157.934 122.289C173.803 128.287 164.083 129.971 168.001 145.742L168 145.719C161.542 140.449 154.451 135.996 146.895 132.46C143.841 129.36 142.08 125.214 141.972 120.866L141.967 120.866Z" fill="#F8F7B5" fill-opacity="0.5"/>
<path d="M123.275 214.013C111.237 215.669 98.991 215.128 87.1434 212.433C86.1226 212.211 85.1244 211.968 84.1173 211.72L84.1038 211.725C83.9909 211.835 83.8559 211.923 83.6988 211.988C75.3298 218.92 65.051 223.164 54.2272 224.163C52.3293 224.468 50.4055 223.884 48.9854 222.581C47.8085 221.112 47.8449 219.008 49.0626 217.578C50.6451 215.875 52.634 214.605 54.8402 213.897C57.4706 212.8 60.1921 211.94 62.9736 211.336C67.5012 210.394 72.0917 209.832 76.7052 209.642C66.9099 206.473 57.4514 202.344 48.4593 197.331C43.4444 198.281 38.3164 198.556 33.2228 198.151C30.3663 197.852 27.563 197.209 24.8705 196.219C22.8235 195.459 20.0621 194.254 20.3235 191.602C20.8422 186.264 30.2333 186.765 33.7512 187.46C36.6077 188.153 39.4079 189.086 42.1117 190.251C43.3266 190.706 44.5365 191.193 45.7148 191.72C44.535 190.518 43.4183 189.26 42.3738 187.948C35.8555 182.993 25.045 180.314 24.2081 170.64C23.9393 168.671 24.7337 166.709 26.311 165.498C27.8882 164.286 29.9822 164.014 31.8238 164.781C37.3049 166.945 38.3682 174.298 40.2774 179.064C43.1177 186.128 48.9323 191.295 54.5846 196.165C56.6463 197.224 58.7262 198.248 60.829 199.227C58.2879 196.674 55.7465 194.122 53.2054 191.57L53.21 191.561C51.0164 189.906 49.3611 187.64 48.4649 185.034C48.0221 183.032 48.9874 180.978 50.8073 180.038C55.6083 177.798 60.0191 183.445 62.1257 186.931L62.1303 186.922C65.2404 192.193 68.0178 197.652 70.4451 203.269C81.5719 207.649 93.3262 210.24 105.27 210.951C101.312 209.67 97.4829 208.006 93.8456 205.991C90.5955 204.119 81.7357 197.119 86.7497 192.978C88.9953 191.122 92.2466 192.073 94.7495 192.82C97.7733 193.733 100.645 195.096 103.262 196.868C108.434 200.334 112.5 205.208 114.975 210.928C117.269 210.792 119.559 210.576 121.854 210.262L121.859 210.253C126.639 209.563 131.342 208.431 135.908 206.868C124.056 198.083 102.04 180.706 95.0501 175.183C91.3458 175.616 86.0541 176.143 84.8416 180.361C83.7605 184.411 80.2363 189.193 76.0654 188.982C67.8375 186.721 72.2437 176.068 82.039 176.787C83.0659 176.866 84.0875 176.604 84.9427 176.033C87.2777 174.57 89.9065 173.63 92.6401 173.293C83.7499 166.221 74.4234 159.43 67.2022 150.575C47.1878 145.807 51.0637 157.851 39.1875 155.389L39.1829 155.398C36.8091 154.29 35.7043 151.544 36.6291 149.11C38.7634 143.95 45.1048 144.658 49.3367 147.068C54.2751 148.606 59.9798 146.684 65.1483 148.015C63.3449 145.426 61.9459 141.787 59.0027 140.039C51.151 135.252 41.5074 122.716 48.2773 114.939C53.8064 110.693 62.0266 115.702 63.2897 121.945L63.3031 121.941C63.946 126.483 63.8908 131.093 63.1532 135.611C64.4064 148.06 77.2178 156.922 86.0421 164.343C80.5018 154.139 74.2441 128.279 88.5235 123.07C100.59 124.069 91.456 144.121 86.7786 153.05C84.4852 158.06 88.9165 165.482 92.1675 169.32C101.187 176.402 131.244 198.966 140.608 205.069L140.62 205.176C146.821 202.791 152.862 199.93 158.953 197.062L158.948 197.07C147.507 195.247 136.719 190.558 127.592 183.42C125.377 181.676 122.728 179.202 123.933 176.07C125.119 172.996 128.886 173.359 131.546 173.647L131.541 173.656C145.095 175.172 157.329 182.468 165.124 193.662C165.234 193.819 165.313 193.995 165.351 194.183C169.207 192.514 173.151 191.047 177.173 189.799C175.463 185.933 174.055 181.941 172.983 177.864L172.978 177.873L172.969 177.868C168.778 179.489 164.144 179.523 159.925 177.984C158.348 177.207 156.87 176.235 155.529 175.085C152.504 172.644 149.642 169.994 146.975 167.163C148.46 167.792 150.098 167.97 151.687 167.675C153.823 167.694 155.95 168.057 157.971 168.758C163.021 170.319 167.799 172.651 172.14 175.679C171.17 173.282 170.133 170.907 169.018 168.594L169.01 168.589C166.27 162.947 163.157 157.484 159.703 152.25L159.657 152.339L159.653 152.325C155.698 154.426 151.103 154.997 146.753 153.953C145.08 153.363 143.502 152.564 142.034 151.573C138.733 149.495 135.572 147.186 132.575 144.669C134.125 145.128 135.769 145.12 137.307 144.641C139.423 144.414 141.575 144.531 143.661 144.996C148.753 145.95 153.681 147.662 158.261 150.094C156.168 147.019 153.985 144.01 151.711 141.067C148.202 136.378 144.327 131.983 140.113 127.92C139.932 127.748 139.737 127.581 139.542 127.413L139.547 127.404C137.219 130.668 133.564 132.732 129.561 133.023C126.893 132.663 124.292 131.888 121.856 130.727C119.863 130.017 117.772 129.583 115.665 129.421C116.644 128.958 117.566 128.365 118.401 127.66C119.858 125.96 121.607 124.545 123.554 123.445C125.526 122.908 127.599 122.917 129.564 123.466C132.007 123.935 134.437 124.453 136.87 125.007C133.502 122.075 130.016 119.262 126.693 116.285C122.007 112.092 117.479 107.744 113.033 103.303L113.029 103.312C111.293 103.914 109.67 104.821 108.25 105.99C106.736 107.099 105.214 108.204 103.7 109.313C102.771 110.094 101.683 110.681 100.514 111.012C98.5192 111.155 96.5311 110.718 94.7766 109.761C92.6544 108.929 90.4219 108.377 88.1594 108.102C90.6047 106.775 92.0457 104.123 94.3022 102.485C96.5839 100.996 99.264 100.261 101.988 100.38C105.675 100.376 109.298 101.238 112.591 102.874C107.795 98.0849 103.09 93.2076 98.4028 88.3172C95.1505 87.8705 92.0214 86.7682 89.1981 85.093C84.6622 82.7064 80.0652 79.783 77.7863 75.3211C76.2748 72.1857 75.8132 68.6462 76.436 65.2261C76.8887 63.4706 77.0515 61.6671 76.9192 59.8696C78.801 63.0716 81.8763 65.3931 85.4674 66.3395C89.0453 67.2679 92.4465 68.802 95.5249 70.8554C100.286 74.7503 101.181 81.4892 100.035 87.3701C107.391 95.0245 114.774 102.67 122.514 109.949C121.504 106.757 120.291 103.629 118.868 100.584C117.847 98.7676 117.149 96.7806 116.828 94.7171C116.756 93.5233 116.872 92.3361 117.184 91.1822C118.172 87.0509 120.313 83.2988 123.362 80.3386C123.822 83.2033 124.568 86.013 125.575 88.7316C126.259 90.3298 126.826 91.9803 127.277 93.661C128.451 99.0715 125.948 104.446 123.508 109.37L123.191 110.577C123.85 111.197 124.509 111.816 125.172 112.427C129.583 116.478 134.206 120.269 138.716 124.192L138.703 124.197C138.709 121.145 138.359 118.09 137.672 115.119C137.344 110.38 138.356 105.654 140.596 101.47C141.734 99.1455 143.085 96.9308 144.623 94.8565C144.987 98.3233 145.745 101.745 146.893 105.042C148.036 108.348 148.171 111.91 147.276 115.292C145.656 118.817 143.085 121.832 139.862 123.995L139.039 124.482L139.048 124.487C143.464 128.44 147.514 132.779 151.175 137.434C152.339 138.886 153.471 140.355 154.599 141.833L154.595 141.842C156.195 139.294 157.263 136.451 157.725 133.476C157.99 131.736 158.058 129.963 158.363 128.233C159.474 122.311 163.251 117.232 168.608 114.458C169.033 120.079 168.757 125.733 167.789 131.289C167.642 132.865 167.067 134.356 166.133 135.628C165.595 136.194 165 136.697 164.347 137.114C161.605 139.041 158.862 140.968 156.129 142.9L155.137 142.558L155.128 142.554C160.206 149.285 164.734 156.408 168.665 163.863C170.874 159.214 173.074 154.56 175.288 149.901C175.852 148.585 176.581 147.342 177.455 146.208C178.874 144.735 180.545 143.538 182.391 142.656C184.621 141.42 186.856 140.176 189.085 138.94C187.181 142.253 185.766 145.816 184.867 149.533C184.678 150.514 184.564 151.5 184.353 152.481L184.344 152.476C182.561 159.422 176.434 164.373 169.264 164.665L168.726 163.985L168.735 163.989C171.554 169.369 173.968 174.944 175.974 180.681C176.814 179.395 177.371 177.94 178.11 176.589C180.566 172.247 184.834 169.25 189.75 168.406C192.839 168.23 195.909 167.83 198.954 167.216C195.379 168.861 194.322 173.148 192.121 176.318C188.556 181.114 182.455 183.303 176.644 181.89L176.302 181.681C177.285 184.601 178.322 187.436 179.008 189.249C184.077 187.776 189.288 186.859 194.551 186.519C200.972 186.156 207.414 186.647 213.704 187.98C215.344 184.678 216.842 181.37 218.106 178.167L218.11 178.181C216.085 178.23 214.077 177.962 212.14 177.382C209.019 176.396 205.534 171.461 206.168 170.293C207.417 167.992 213.885 169.765 215.475 170.672L215.466 170.667C217.099 171.338 218.553 172.355 219.741 173.65C220.695 170.613 221.466 167.516 222.037 164.372C211.818 167.58 200.66 165.295 192.518 158.338C192.235 158.103 192.109 157.712 192.207 157.347C192.301 156.991 192.598 156.717 192.97 156.65C198.908 154.601 205.204 153.803 211.458 154.31C215.773 154.853 219.777 156.876 222.785 160.028C223.426 155.348 223.572 150.627 223.217 145.918C212.636 149.175 201.197 148.004 191.493 142.67C191.16 142.51 190.94 142.173 190.939 141.802C190.935 141.418 191.153 141.081 191.503 140.924C201.458 136.873 213.999 134.522 222.798 141.839C222.231 137.65 221.325 133.512 220.078 129.468C211.103 135.437 199.978 132.08 190.835 128.191L190.84 128.183C190.489 128.036 190.26 127.694 190.26 127.3C190.264 126.921 190.496 126.579 190.85 126.436C199.566 122.939 210.308 120.045 218.712 125.396C217.323 121.605 215.684 117.91 213.802 114.337C202.174 119.348 189.133 120.05 177.037 116.306C176.726 116.169 176.51 115.889 176.469 115.554C176.428 115.218 176.561 114.893 176.827 114.682C186.67 107.024 199.87 105.248 211.392 110.021C208.498 105.052 205.144 100.364 201.385 96.0066C190.043 105.511 174.043 107.119 161.046 100.037C160.477 99.722 160.187 98.8431 160.835 98.4123C171.764 91.155 184.295 87.6643 196.906 91.055C196.032 90.1115 189.116 83.5254 186.18 81.1521C181.853 81.2878 178.905 84.0749 174.92 85.6219C170.883 87.4677 166.424 88.232 161.996 87.8437C161.661 87.7954 161.382 87.5734 161.251 87.2592C161.13 86.9495 161.169 86.5881 161.373 86.3222C166.479 80.3193 174.256 77.2724 182.074 78.2116C179.654 76.4738 177.16 74.8334 174.604 73.2951L174.608 73.2862C174.559 73.2946 174.514 73.2941 174.465 73.3025C161.632 73.2915 152.292 87.3173 138.926 84.1455C138.418 84.0639 138.052 83.5952 138.111 83.0865C139.693 77.0137 144.427 72.2802 150.49 70.689C156.538 69.2362 162.818 69.0144 168.946 70.0514C163.876 67.4578 158.633 65.2467 153.237 63.4182C153.188 63.4713 153.129 63.5198 153.066 63.5548C141.088 70.8229 127.342 74.6666 113.325 74.6652C112.538 74.6655 112.366 73.6672 112.702 73.1436C120.27 61.4751 134.874 60.8578 147.577 61.7123C143.091 60.4969 134.549 59.1744 131.506 58.7121C130.757 58.5966 130.002 58.5794 129.242 58.6381C122.784 59.1392 116.348 58.8988 110.723 55.2224C104.964 51.4551 101.223 45.4892 97.6755 39.7578C97.3374 39.2134 97.5175 38.2726 98.2953 38.2454C111.022 37.7192 120.985 45.9828 129.696 54.2998L129.7 54.2909C130.496 55.0593 131.518 55.562 132.616 55.7214C136.144 56.2427 144.392 57.5484 148.869 58.7817C142.27 52.2349 138.295 43.4872 137.722 34.1961C137.685 33.5478 138.34 32.8178 139.033 33.1962C149.201 38.7008 152.498 50.1443 154.96 60.6533L154.955 60.6621C160.747 62.638 166.359 65.0945 171.733 68.013L171.871 68.095L171.875 68.0861C169.273 62.593 167.177 56.8775 165.602 51.0024C164.014 45.0647 161.526 37.2047 164.886 31.4729C165.16 31.0067 165.852 30.6211 166.338 31.0956C171.436 36.0174 174.982 42.3207 176.523 49.2455C178.208 56.1986 177.945 63.4878 175.756 70.3046C178.593 71.9979 181.352 73.8198 184.039 75.7617L184.043 75.7529C183.088 73.2178 182.693 70.5104 182.902 67.8093C183.293 64.7529 184.736 61.9224 186.971 59.8022C187.192 59.5902 187.51 59.4954 187.809 59.5701C188.112 59.636 188.355 59.8621 188.45 60.158C190.306 66.1211 192.059 73.3788 187.646 78.4688L187.642 78.4777C191.478 81.4822 195.115 84.7437 198.526 88.2259C195.397 76.9808 198.362 64.9136 206.351 56.3812C206.56 56.1288 206.887 55.9938 207.213 56.0376C207.547 56.086 207.836 56.2902 207.971 56.5955C210.618 63.7066 213.18 71.3574 212.188 79.0587C211.609 84.9952 208.512 90.3901 203.675 93.8803C207.248 98.0749 210.488 102.547 213.354 107.244C213.053 97.5756 217.738 88.436 225.768 83.0364C226.039 82.8383 226.388 82.793 226.704 82.9215C227.006 83.0544 227.226 83.3249 227.281 83.6562C228.048 90.3177 228.845 97.4665 226.211 103.841L226.206 103.85C224.545 108.197 221.138 111.658 216.812 113.389C218.331 116.314 219.696 119.319 220.914 122.393C222.505 114.55 228.072 108.11 235.586 105.378C235.896 105.256 236.253 105.304 236.519 105.508C236.784 105.712 236.928 106.045 236.893 106.375C236.97 111.604 235.48 116.735 232.617 121.104C230.279 124.43 226.737 126.71 222.743 127.466C224.066 131.538 225.066 135.713 225.699 139.947C228.048 134.718 232.865 131.004 238.523 130.07C238.868 130.011 239.206 130.14 239.422 130.419C239.629 130.694 239.679 131.056 239.528 131.372C236.727 137.391 233.181 143.791 226.29 145.136C226.62 149.282 226.587 153.455 226.202 157.593C231.59 145.816 243.57 138.458 256.518 138.988C256.839 138.996 257.137 139.16 257.331 139.417C257.525 139.674 257.597 139.992 257.531 140.318C254.237 155.103 240.445 165.135 225.358 163.718C225.125 164.98 224.87 166.242 224.57 167.503C224.176 169.166 223.738 170.805 223.252 172.431L223.243 172.426C227.476 168.603 233.781 168.158 238.509 171.351C238.916 171.673 238.995 172.264 238.682 172.676C234.798 178.071 227.712 180.08 221.574 177.533C220.187 181.347 218.618 185.078 216.844 188.727C221.719 189.974 226.45 191.697 230.974 193.887C233.25 194.988 231.074 198.262 228.825 197.174L228.834 197.178C224.433 195.052 219.827 193.416 215.071 192.287C212.177 197.898 208.927 203.35 205.513 208.638C204.413 210.342 201.928 208.402 203.028 206.699C206.015 202.067 209.078 196.89 211.858 191.59C209.325 191.098 206.764 190.748 204.188 190.536C189.472 198.52 188.858 220.681 172.355 226.916C169.708 227.915 165.272 229.095 163.315 226.214C161.385 223.369 164.148 219.083 165.619 216.615L165.623 216.628C167.819 213.163 170.317 209.919 173.106 206.916C175.99 203.512 179.06 200.27 182.306 197.209C184.964 194.768 187.866 192.596 190.969 190.754C180.249 192.424 169.868 195.817 160.234 200.797C155.536 203.01 150.855 205.234 146.102 207.228C142.495 219.167 132.95 227.731 122.072 233.317C119.355 234.976 116.384 236.19 113.288 236.925C111.989 237.246 110.615 237.012 109.497 236.28C108.375 235.557 107.601 234.396 107.37 233.076C107.085 230.155 109.572 228.243 111.838 226.981C115.542 224.908 119.492 223.32 123.362 221.602C129.55 218.851 136.092 215.495 140.236 210.009C140.085 209.909 139.939 209.8 139.784 209.687C134.445 211.684 128.915 213.133 123.276 214.01L123.275 214.013Z" fill="#F8F7B5" fill-opacity="0.5"/>
<path d="M210.671 238.068C217.721 219.076 229.18 202.029 244.089 188.319C248.568 189.038 250.169 194.212 252.207 197.631C260.691 210.826 271.327 197.845 251.69 190.58L251.697 190.581C250.892 190.294 250.15 189.852 249.512 189.286C248.44 188.236 247.218 187.354 245.885 186.662C250.627 182.346 255.653 178.351 260.935 174.701C268.296 172.954 276.966 176.057 278.431 184.201C274.857 186.712 279.476 191.833 282.821 189.749L282.819 189.756C284.414 188.931 285.134 187.037 284.488 185.358C283.841 183.685 282.036 182.763 280.305 183.221C279.556 180.193 277.841 177.487 275.409 175.518C279.828 176.661 283.997 178.611 287.7 181.274C286.735 183.276 287.426 185.679 289.298 186.861C291.175 188.052 293.638 187.651 295.041 185.934C296.443 184.216 296.334 181.716 294.795 180.121C293.248 178.533 290.757 178.346 288.991 179.686C286.135 177.618 283.009 175.953 279.703 174.733C281.283 174.158 282.713 173.244 283.901 172.064C285.21 173.586 287.438 173.924 289.14 172.854C290.841 171.783 291.5 169.631 290.689 167.793C289.885 165.957 287.853 164.986 285.915 165.515C283.976 166.044 282.718 167.915 282.959 169.907L282.883 170.19C278.121 175.967 270.693 171.534 264.481 172.323C301.537 145.853 296.18 171.927 328.688 177.426L328.681 177.425C330.678 177.698 332.645 176.746 333.675 175.011C334.704 173.282 334.596 171.097 333.401 169.476C329.298 162.586 315.268 161.52 306.647 162.852L306.639 162.851C304.591 163.141 302.492 162.769 300.66 161.795C297.489 160.09 294.036 158.953 290.474 158.429C297.916 155.15 305.54 152.277 313.243 149.683L313.245 149.675C317.424 150.323 321.382 151.974 324.767 154.508C324.753 157.657 329.258 160.407 330.968 156.823L330.969 156.815C331.707 155.408 331.341 153.674 330.095 152.686C328.849 151.699 327.07 151.733 325.872 152.781C323.211 150.808 320.206 149.33 317.017 148.426C323.299 146.379 329.511 144.585 335.858 142.736C340.761 143.838 345.62 146.832 347.426 151.766L347.42 151.757C345.873 152.285 344.899 153.826 345.097 155.448C345.302 157.072 346.612 158.334 348.249 158.461C350.068 158.566 351.679 157.307 352.014 155.523C352.358 153.733 351.324 151.97 349.597 151.402C349.031 150.031 348.294 148.746 347.396 147.565C349.834 147.641 352.167 148.6 353.95 150.27C353.203 153.944 358.577 157.218 360.791 153.642C362.591 149.493 359.381 146.461 355.397 148.846L355.405 148.847C352.794 146.387 349.222 145.194 345.652 145.604C343.886 143.892 341.778 142.56 339.475 141.707C353.231 136.158 362.053 140.244 370.782 151.643C372.082 153.202 373.426 155.13 375.622 155.37L375.615 155.368C376.464 155.488 377.322 155.273 378.007 154.76C378.692 154.247 379.139 153.483 379.258 152.642C379.686 147.05 368.3 143.267 363.902 141.882L363.904 141.875C361.925 140.332 359.752 139.054 357.438 138.077C362.999 137.463 368.619 137.867 374.032 139.269C397.514 163.109 397.97 141.456 380.41 137.312C382.532 135.886 385.966 133.529 384.606 130.562C382.276 126.176 376.817 133.598 374.802 136.458L374.795 136.456C370.378 135.305 365.811 134.82 361.252 135.011L365.591 131.329C368.968 133.255 373.667 130.287 371.23 126.476L371.228 126.483C370.224 125.118 368.409 124.638 366.867 125.321C365.316 126.009 364.455 127.673 364.783 129.331L357.849 135.219C349.769 136.169 341.798 137.87 334.027 140.282C336.869 137.714 339.39 134.817 341.533 131.648C342.462 130.78 346.654 125.663 349.187 124.794C353.144 122.572 360.261 121.746 361.12 116.577C361.088 115.795 360.739 115.061 360.15 114.551C359.561 114.042 358.784 113.799 358.008 113.879C343.813 116.674 340.769 134.683 329.133 141.683C319.041 144.619 309.028 147.87 299.238 151.69C300.639 149.474 301.822 147.135 302.781 144.694C306.094 143.186 308.771 141.143 312.692 140.27C314.637 143.332 319.872 141.376 318.606 137.646C317.589 134.33 311.888 134.883 311.883 138.387L311.888 138.396C309.031 139.204 306.3 140.392 303.763 141.928C305.1 137.681 305.743 133.24 305.666 128.791C309.701 127.567 309.835 121.882 305.171 121.921C301.737 122.022 299.826 127.55 303.632 128.586C303.697 132.013 303.318 135.437 302.513 138.77C300.739 136.412 298.276 134.658 295.472 133.752C296.178 130.521 291.573 129.276 290.149 132.1C288.554 134.973 292.178 138.179 294.562 135.605C297.553 136.574 300.117 138.534 301.851 141.151C300.529 145.432 298.496 149.454 295.834 153.049C280.17 159.126 265.45 167.391 252.101 177.593C253.664 172.505 254.298 167.172 253.977 161.857C258.673 148.067 276.367 143.581 280.773 129.782C281.335 120.729 267.019 128.215 263.583 130.978C245.072 143.81 257.081 164.446 248.349 180.648L248.343 180.639C243.353 184.826 238.647 189.335 234.259 194.149C235.055 188.559 231.556 178.915 239.33 176.381C241.713 178.578 245.752 175.898 244.14 172.892C242.652 170.273 238.13 171.838 238.467 174.532L238.469 174.525C236.484 175.343 234.781 176.705 233.555 178.46C232.844 174.573 231.747 170.772 230.274 167.114C231.155 166.834 231.881 166.199 232.282 165.364C232.684 164.522 232.713 163.562 232.377 162.693C232.047 161.832 231.365 161.15 230.505 160.797C229.65 160.453 228.686 160.477 227.844 160.865C224.142 162.183 223.831 167.585 228.35 167.791L228.343 167.79C230.655 173.476 232.014 179.496 232.362 185.621C230.916 184.238 229.091 183.304 227.122 182.937L227.07 182.857C227.505 181.147 226.578 179.384 224.931 178.764C223.277 178.142 221.427 178.866 220.624 180.436C219.908 181.954 220.32 183.76 221.621 184.813C222.929 185.867 224.783 185.88 226.113 184.861C228.769 185.137 231.131 186.677 232.453 189C232.448 191.606 232.259 194.212 231.891 196.794C221.484 208.597 213.36 222.239 207.938 237.024C207.687 237.768 208.066 238.578 208.802 238.866C209.54 239.146 210.359 238.792 210.667 238.068L210.671 238.068Z" fill="#F8F7B5" fill-opacity="0.5"/>
<path d="M179.31 272.261C182.174 272.736 185.101 272.783 187.98 272.404C193.24 271.668 198.318 269.92 202.922 267.262C207.225 264.667 211.33 261.748 215.191 258.529C213.98 262.152 212.517 265.672 210.8 269.081C210.073 270.521 209.305 271.913 208.514 273.313C204.749 275.575 200.858 277.608 196.847 279.388C196.823 279.261 196.792 279.127 196.744 279.008C196.372 278.091 195.463 277.513 194.474 277.545C193.612 277.569 192.813 278.02 192.338 278.747C191.871 279.475 191.792 280.393 192.133 281.191C192.417 281.808 192.979 282.251 193.643 282.402C194.308 282.544 195.004 282.378 195.534 281.943C195.724 281.872 195.906 281.761 196.056 281.619L196.095 281.579C196.135 281.54 196.198 281.5 196.238 281.46L196.238 281.437C199.845 279.878 203.365 278.13 206.79 276.208C202.4 283.098 197.63 289.727 192.496 296.078C192.259 295.865 191.958 295.754 191.642 295.77C191.547 295.754 191.452 295.746 191.357 295.754C191.231 295.73 191.104 295.715 190.978 295.715C190.637 295.738 190.305 295.825 190.005 295.976C189.57 296.221 189.214 296.585 188.992 297.028C188.628 298.183 189.182 299.424 190.289 299.923C191.286 300.579 192.615 300.366 193.366 299.44C193.801 298.855 193.873 298.064 193.548 297.415C194.236 296.506 194.925 295.612 195.636 294.726L195.629 294.718C200.264 288.888 204.575 282.805 208.53 276.493C208.775 278.985 209.06 281.453 209.424 283.929C210.104 289.379 211.536 294.718 213.672 299.78C215.8 304.819 219.161 309.241 223.433 312.642C223.646 312.832 223.947 312.904 224.224 312.816C224.501 312.737 224.714 312.516 224.793 312.239C225.774 309.281 226.336 306.196 226.47 303.079C226.723 297.139 225.355 291.238 222.507 286.017C219.66 280.796 215.444 276.446 210.31 273.44C211.623 271.114 212.865 268.725 213.957 266.249C217.682 257.762 219.992 248.729 220.799 239.497C222.159 241.87 223.536 244.196 224.991 246.482C227.91 251.252 231.517 255.563 235.686 259.28C239.601 262.769 244.292 265.26 249.378 266.55C249.623 266.605 249.884 266.542 250.082 266.376C250.28 266.218 250.391 265.972 250.391 265.719C250.066 262.476 249.275 259.304 248.041 256.282C245.803 250.856 242.148 246.134 237.465 242.598C232.719 239.022 227.095 236.792 221.186 236.135C221.147 236.119 221.107 236.111 221.067 236.119C221.55 226.975 220.98 217.807 219.367 208.798C219.161 207.564 218.924 206.33 218.679 205.096C222.365 209.281 226.28 213.259 230.402 217.017L230.402 217.04C231.367 218.915 231.912 220.972 231.999 223.076C232.063 224.049 232.063 225.022 232.063 225.995C232.039 226.707 232.181 227.917 231.556 228.447L231.556 228.439C231.185 228.676 230.781 228.858 230.362 228.969C228.978 229.515 228.226 231.018 228.622 232.45C228.906 233.391 229.642 234.119 230.583 234.388C231.517 234.664 232.537 234.443 233.273 233.81C233.906 233.209 234.238 232.355 234.183 231.492C234.119 230.622 233.676 229.823 232.972 229.309C233.107 229.151 233.21 228.977 233.297 228.787C233.613 227.917 233.747 226.992 233.7 226.074C233.779 223.82 233.55 221.565 233.036 219.366C239.617 225.101 246.847 230.061 254.559 234.15C255.35 234.554 256.118 234.941 256.909 235.321L256.909 235.329C253.618 242.061 252.732 249.718 254.393 257.027C256.062 264.336 260.176 270.854 266.061 275.505C266.274 275.695 266.575 275.758 266.852 275.679C267.129 275.592 267.342 275.378 267.421 275.102C268.37 272.365 268.916 269.509 269.035 266.614C269.193 261.338 268.37 256.078 266.607 251.102C264.874 246.214 262.77 241.46 260.31 236.888C267.065 239.901 274.2 241.974 281.51 243.066C283.978 243.414 286.469 243.69 288.985 243.896C288.882 247.013 289.214 250.121 289.974 253.143C291.429 258.918 294.419 264.178 298.627 268.378C302.835 272.578 308.104 275.56 313.87 277C314.123 277.055 314.376 276.992 314.574 276.826C314.772 276.668 314.89 276.423 314.882 276.169C314.637 273.322 313.981 270.529 312.937 267.872C310.967 263.007 308.111 258.553 304.52 254.725C300.889 250.888 296.966 247.345 292.774 244.133C293.786 244.196 294.799 244.252 295.835 244.291L295.827 244.299C299.766 244.537 303.721 244.181 307.558 243.247C310.595 243.247 313.609 243.287 316.647 243.223C322.152 243.223 327.626 242.361 332.87 240.676C338.107 238.984 342.845 236.017 346.658 232.046C346.832 231.857 346.911 231.603 346.871 231.35C346.832 231.097 346.673 230.876 346.452 230.749C343.581 229.476 340.543 228.621 337.427 228.218C331.763 227.435 325.996 228.178 320.72 230.369C315.144 232.829 310.35 236.769 306.846 241.744C306.403 241.863 305.952 241.966 305.485 242.045L305.485 242.053C301.34 242.765 297.116 242.915 292.932 242.496C296.531 240.629 300.011 238.549 303.365 236.278L303.429 236.278C303.468 236.278 303.492 236.255 303.531 236.255L303.524 236.255C303.555 236.247 303.595 236.247 303.626 236.239C303.832 236.184 304.022 236.089 304.196 235.954C305.019 235.654 305.596 234.902 305.667 234.032C305.738 233.154 305.303 232.315 304.536 231.888C303.816 231.485 302.954 231.437 302.195 231.762C301.435 232.086 300.874 232.75 300.668 233.542C300.486 234.325 300.723 235.131 301.293 235.693C297.599 238.121 293.754 240.313 289.776 242.251C285.749 241.998 281.747 241.491 277.784 240.756C276.447 240.495 275.11 240.186 273.797 239.846C275.885 239.118 277.989 238.39 280.078 237.615C285.275 235.788 290.163 233.186 294.577 229.879C298.967 226.565 302.464 222.214 304.742 217.207C304.868 216.946 304.852 216.638 304.702 216.392C304.552 216.147 304.275 216.005 303.99 216.005C295.123 215.324 286.359 218.267 279.69 224.152C275.379 228.178 272.207 233.28 270.515 238.928C265.017 237.251 259.693 235.029 254.623 232.308C257.471 230.607 260.113 228.566 262.478 226.233C262.739 226.407 263.039 226.494 263.348 226.502C263.538 226.494 263.735 226.454 263.917 226.399C264.218 226.415 264.519 226.351 264.788 226.217C265.365 225.869 265.753 225.283 265.847 224.619C265.935 223.947 265.721 223.274 265.254 222.792C264.716 222.293 263.997 222.048 263.269 222.119C262.541 222.183 261.877 222.562 261.442 223.156C261.062 223.709 261.054 224.437 261.426 224.999C258.894 227.514 256.023 229.658 252.899 231.374C252.551 231.168 252.21 230.987 251.886 230.805L251.886 230.812C245.566 227.158 239.617 222.902 234.104 218.117C236.406 218.726 238.748 219.129 241.113 219.327C246.934 219.81 252.788 218.892 258.183 216.653C264.186 214.209 269.518 210.357 273.718 205.421C273.94 205.176 273.995 204.828 273.861 204.527C273.734 204.234 273.434 204.037 273.109 204.037C269.7 204.1 266.306 203.657 263.024 202.747C257.273 201.387 251.119 199.892 245.463 202.399C239.364 205.112 235.868 211.085 231.367 215.704C230.719 215.095 230.054 214.486 229.406 213.861C225.387 210.048 221.574 206.022 217.968 201.814C217.343 198.982 216.631 196.166 215.84 193.366C219.296 193.92 222.816 193.872 226.249 193.223C226.526 193.943 227.096 194.521 227.808 194.805C228.828 195.217 229.991 194.9 230.663 194.038C231.359 193.215 231.423 192.037 230.829 191.143C230.197 190.297 229.105 189.933 228.092 190.233C227.555 190.407 227.112 190.803 226.874 191.325C226.874 191.364 226.866 191.396 226.835 191.428C223.062 192.258 219.162 192.33 215.357 191.626C213.996 186.927 212.462 182.291 210.801 177.712L210.801 177.719C212.944 178.851 215.151 179.879 217.398 180.796C222.429 182.901 227.776 184.134 233.218 184.435C238.344 184.704 243.462 183.818 248.2 181.849C248.224 181.825 248.239 181.825 248.263 181.809C248.445 181.738 248.603 181.611 248.706 181.445C248.746 181.327 248.777 181.216 248.785 181.097L248.785 180.994C248.793 180.971 248.785 180.939 248.769 180.915L248.769 180.876C248.746 180.725 248.675 180.583 248.564 180.472C248.556 180.472 248.548 180.464 248.548 180.449L248.485 180.385L248.366 180.322L248.366 180.33C245.574 179.072 243.019 177.364 240.788 175.267C238.771 173.408 236.524 171.811 234.104 170.505C231.557 169.287 228.678 168.931 225.909 169.493C220.301 170.545 215.76 174.595 210.112 175.489C210.049 175.465 209.994 175.433 209.946 175.386C206.323 165.664 202.21 156.109 198.097 146.592L198.105 146.592C197.97 146.165 197.527 145.912 197.092 146.023C196.657 146.149 196.404 146.6 196.523 147.035C197.068 148.309 197.614 149.59 198.16 150.84C201.743 159.185 205.287 167.546 208.443 176.074L208.451 176.074C208.451 176.208 208.499 176.335 208.57 176.438C209.179 178.075 209.788 179.736 210.35 181.397C212.375 187.211 214.178 193.104 215.657 199.076C213.229 196.158 210.879 193.16 208.593 190.146C202.155 181.619 196.222 172.751 190.266 163.9C189.68 163.03 188.28 163.876 188.865 164.754C189.617 165.885 190.384 167.024 191.136 168.155C194.252 172.791 197.393 177.41 200.612 181.982L200.612 181.99C198.453 184.355 196.42 186.847 194.537 189.442C191.484 193.468 189.728 198.325 189.498 203.371C189.498 208.497 192.275 212.927 193.406 217.807C193.493 218.092 193.722 218.298 194.007 218.369C194.292 218.44 194.592 218.361 194.798 218.155C196.815 215.83 198.642 213.346 200.248 210.72C202.977 206.369 204.686 201.457 205.232 196.347C205.516 193.294 205.247 190.225 204.417 187.274C206.236 189.766 208.103 192.226 210.009 194.662C212.113 197.351 214.265 199.993 216.472 202.58C217.184 205.76 217.785 208.956 218.275 212.175L218.267 212.183C218.275 212.286 218.291 212.381 218.315 212.484C218.117 213.488 217.785 214.461 217.342 215.379C216.859 216.391 216.148 217.246 215.602 218.195C215.016 219.168 214.471 220.157 213.901 221.153C213.64 221.62 213.371 222.087 213.094 222.53C213.015 222.688 212.912 222.83 212.809 222.996L212.802 222.996C212.715 222.996 212.62 223.012 212.54 223.052C211.916 222.688 211.14 222.664 210.5 222.996C209.851 223.328 209.424 223.969 209.361 224.697C209.424 225.527 209.851 226.287 210.539 226.761C211.22 227.236 212.082 227.378 212.889 227.141C213.862 226.912 214.589 226.097 214.708 225.1C214.732 224.602 214.581 224.104 214.281 223.7C215.317 222.023 216.187 220.275 217.239 218.614C217.769 217.783 218.354 217.016 218.797 216.146C219.604 222.846 219.81 229.601 219.407 236.341C216.282 238.057 212.928 239.307 209.44 240.066C209.4 240.003 209.376 239.924 209.337 239.861L209.345 239.861C208.831 239.149 207.889 238.896 207.09 239.251C206.45 239.505 205.928 240.003 205.667 240.644C205.405 241.284 205.413 242.004 205.698 242.637C205.999 243.207 206.537 243.61 207.162 243.744C207.794 243.879 208.451 243.729 208.957 243.325C209.084 243.207 209.187 243.064 209.281 242.922C209.669 242.605 209.898 242.139 209.906 241.64C213.142 240.905 216.282 239.789 219.264 238.326C219.201 239.22 219.106 240.13 219.003 241.015C218.481 245.833 217.548 250.595 216.203 255.254C213.466 254.494 210.642 254.059 207.802 253.956C202.178 253.774 196.61 255.135 191.705 257.888C186.231 260.973 181.754 265.553 178.78 271.09C178.661 271.311 178.653 271.572 178.756 271.802C178.859 272.039 179.065 272.206 179.31 272.261ZM213.577 282.204C218.877 290.747 222.184 300.374 223.251 310.372C221.448 308.798 219.842 307.01 218.474 305.049C215.539 300.619 213.443 295.683 212.296 290.486C211.331 286.159 210.65 281.769 210.271 277.347C211.449 278.921 212.541 280.527 213.577 282.204ZM229.975 240.123C235.148 242.338 239.626 245.905 242.94 250.454C245.186 253.594 246.84 257.114 247.836 260.84C246.966 259.479 246.033 258.166 245.06 256.892C241.888 252.7 238.249 248.895 234.207 245.533C230.798 242.694 227.112 240.202 223.212 238.082C225.537 238.493 227.808 239.182 229.975 240.123ZM314.804 235.733C319.274 232.268 324.645 230.164 330.277 229.673C333.836 229.381 337.419 229.673 340.884 230.551C339.302 230.654 337.728 230.797 336.146 230.994C330.926 231.635 325.784 232.861 320.84 234.657C317.454 235.891 314.172 237.402 311.039 239.174C312.202 237.932 313.46 236.785 314.804 235.733ZM297.631 250.311C301.824 253.831 305.47 257.952 308.445 262.54C310.802 266.226 312.376 270.355 313.064 274.674C310.984 273.005 309.006 271.218 307.147 269.303C303.572 265.641 300.424 261.575 297.774 257.193C295.614 253.602 293.787 249.813 292.324 245.874C294.127 247.313 295.915 248.792 297.631 250.311ZM275.966 231.074C279.051 226.319 283.457 222.57 288.638 220.284C291.865 218.829 295.306 217.951 298.826 217.666C297.347 218.275 295.892 218.939 294.452 219.651C289.761 221.977 285.347 224.817 281.289 228.115C278.489 230.385 275.887 232.893 273.514 235.614C274.202 234.032 275.017 232.513 275.966 231.074ZM259.56 259.788C260.525 263.561 261.815 267.239 263.412 270.783C262.352 269.636 261.38 268.402 260.517 267.097C257.345 262.383 255.526 256.885 255.273 251.205C255.059 246.61 255.866 242.03 257.622 237.774C257.464 239.902 257.401 242.046 257.44 244.197C257.543 249.457 258.263 254.694 259.56 259.788ZM264.749 211.291C259.813 214.669 254.15 216.828 248.225 217.588C243.867 218.062 239.453 217.762 235.205 216.694C237.048 216.267 238.891 215.824 240.71 215.357C245.994 214.044 251.239 212.581 256.444 210.983C261.245 209.527 266.023 207.922 270.761 206.245L270.761 206.253C268.934 208.127 266.917 209.82 264.749 211.291ZM218.134 176.684C223.173 176.613 228.204 176.993 233.179 177.815C237.443 178.511 241.643 179.595 245.709 181.058C243.779 181.739 241.785 182.221 239.76 182.498C234.706 183.139 229.572 182.799 224.652 181.501C220.562 180.41 216.607 178.875 212.842 176.929C214.606 176.787 216.37 176.7 218.134 176.684ZM193.145 211.749C192.861 211.021 192.6 210.294 192.338 209.542L192.331 209.55C191.508 207.327 191.112 204.97 191.16 202.605C191.286 200.327 191.816 198.096 192.718 196C194.704 191.776 197.354 187.9 200.573 184.522C200.525 186.255 200.249 187.979 199.742 189.64C198.445 194.078 196.04 198.065 194.577 202.439C193.644 205.461 193.153 208.593 193.145 211.757L193.145 211.749ZM186.295 263.917C190.416 259.954 195.574 257.241 201.182 256.102C204.694 255.453 208.285 255.414 211.813 255.983C210.516 256.189 209.243 256.41 207.969 256.671L207.961 256.671C202.827 257.763 197.836 259.464 193.098 261.734C189.586 263.395 186.216 265.333 183.02 267.548C184.009 266.251 185.101 265.033 186.295 263.917Z" fill="#F8F7B5" fill-opacity="0.5"/>
<path d="M148.924 274.813C151.524 277.62 154.96 276.761 158.082 274.92C157.453 277.215 157.365 279.621 157.82 281.953C158.283 285.163 160.765 287.725 163.972 288.264C167.497 288.498 169.041 285.019 170.077 282.259C171.355 278.895 172.347 275.43 173.024 271.896C173.823 267.957 174.015 263.92 173.609 259.913C175.066 257.423 176.438 254.889 178.076 252.522C180.079 249.623 182.503 247.025 184.693 244.269C189.103 238.717 193.28 232.946 197.236 227.054L197.239 227.063C199.835 223.236 202.167 219.25 204.239 215.116C203.963 225.886 202.977 236.622 201.291 247.258C193.568 246.894 186.452 251.453 183.563 258.621C183.423 258.909 183.437 259.238 183.614 259.505C183.779 259.766 184.072 259.924 184.383 259.916C190.75 259.299 196.592 256.13 200.581 251.128C200.031 253.954 199.393 256.759 198.668 259.541C197.702 263.279 196.491 266.945 195.026 270.511C189.883 272.515 185.257 275.658 181.495 279.698C179.377 281.733 178.094 284.481 177.893 287.419C177.783 290.165 179.69 292.577 182.383 293.12C184.784 293.29 187.182 292.692 189.234 291.427C189.854 293.484 191.14 295.287 192.887 296.537C194.711 297.59 196.975 297.552 198.77 296.429C200.465 295.501 201.861 294.082 202.754 292.359C203.52 293.014 204.373 293.559 205.295 293.972C206.288 294.513 207.372 294.833 208.501 294.916C210.331 294.945 212.068 294.085 213.151 292.604C214.259 291.045 214.831 289.172 214.773 287.258C214.465 284.09 213.079 281.126 210.844 278.859C209.044 276.999 206.882 275.528 204.496 274.523C201.906 273.321 199.393 271.952 196.989 270.418C199.562 263.715 201.459 256.764 202.635 249.68C203.295 245.999 203.824 242.288 204.271 238.574C205.975 243.884 210.012 248.112 215.238 250.057C215.523 250.188 215.852 250.173 216.122 250.006C216.38 249.832 216.539 249.538 216.539 249.224C215.613 241.925 211.336 235.468 204.969 231.765C205.192 229.306 205.375 226.85 205.537 224.391C205.818 219.941 206.018 215.487 206.135 211.029C206.463 210.256 206.792 209.483 207.105 208.694C208.708 204.64 210.174 200.508 211.952 196.528L211.961 196.525C214.212 198.656 216.34 200.906 218.336 203.28C214.489 210.048 215.353 218.51 220.496 224.355C220.707 224.54 220.983 224.614 221.252 224.568C221.518 224.513 221.757 224.345 221.882 224.103C223.844 219.215 224.102 213.811 222.615 208.765C226.429 214.127 229.755 219.827 232.539 225.792C232.543 225.962 232.557 226.13 232.57 226.298L232.567 226.319C232.116 230.399 230.983 234.373 229.23 238.082C227.945 241.549 225.993 246.404 228.357 249.833L228.354 249.824C229.354 251.394 231.212 252.204 233.043 251.859C234.91 251.341 236.385 249.917 236.979 248.078C237.429 246.77 237.655 245.393 237.634 244.004C237.715 244.129 237.793 244.246 237.874 244.372L237.877 244.381C239.03 246.115 240.884 247.26 242.958 247.515C244.897 247.692 246.78 246.814 247.882 245.206C250.354 241.308 246.593 236.901 244.01 234.179C243.643 233.791 243.251 233.421 242.875 233.036C243.426 233.304 243.981 233.581 244.547 233.834L244.556 233.832C246.214 234.615 247.94 235.265 249.7 235.802C251.283 236.417 253.08 236.185 254.462 235.195C257.169 232.85 255.467 228.996 253.155 227.118C250.588 225.392 247.506 224.58 244.415 224.814C242.873 224.802 241.346 224.928 239.826 225.173C237.935 225.456 236.007 225.407 234.129 225.039C231.494 219.35 228.4 213.899 224.87 208.73C221.335 203.673 217.27 199.009 212.739 194.819C213.444 193.328 214.21 191.868 215.057 190.443C218.555 184.132 223.674 178.868 229.875 175.179C231.457 177.807 233.397 180.199 235.625 182.286C242.89 188.978 252.226 192.285 261.408 195.367C261.657 195.449 261.909 195.54 262.158 195.622L262.17 195.629C262.168 195.781 262.215 195.928 262.296 196.053C265.615 201.857 267.228 208.461 266.991 215.132C266.705 221.839 265.838 228.5 264.4 235.051C264.195 236.209 264.017 237.359 263.861 238.511L263.849 238.536C255.267 252.71 248.334 267.831 243.197 283.601C242.168 287.017 241.355 290.504 240.746 294.028C238.144 294.084 235.541 293.978 232.946 293.709C230.519 293.334 228.042 293.34 225.608 293.726C222.488 294.313 219.647 295.892 217.482 298.225C215.01 300.799 214.694 304.764 216.727 307.693C218.232 309.233 220.34 310.033 222.489 309.89C223.123 309.909 223.763 309.856 224.382 309.738C224.137 313.104 225.764 317.195 229.066 318.249C231.744 318.715 234.477 317.869 236.414 315.962C237.384 317.786 238.786 319.349 240.487 320.523C242.74 321.964 245.712 321.516 247.435 319.477C249.299 317.058 249.974 313.928 249.282 310.954C248.833 308.134 247.99 305.38 246.773 302.786C245.597 300.068 244.115 297.499 242.37 295.116C243.489 288.485 245.286 281.981 247.727 275.715C248.106 278.314 248.891 280.824 250.058 283.17C251.596 286.481 253.936 289.361 256.87 291.535C257.108 291.742 257.433 291.81 257.727 291.716C258.029 291.619 258.254 291.374 258.328 291.068C259.626 283.418 255.954 275.786 249.164 272.027C252.102 264.853 255.388 257.82 259.039 250.975C260.439 248.31 261.882 245.682 263.347 243.058C262.997 247.075 262.884 251.106 263.025 255.138C263.26 262.082 263.797 269.052 264.593 275.948C265.043 279.87 265.833 283.784 266.136 287.723C266.384 290.891 266.217 294.06 266.16 297.224L266.163 297.233C262.168 302.723 259.402 309.012 258.069 315.671C257.38 318.694 256.04 322.998 258.466 325.578C260.801 328.066 264.739 327.096 267.123 325.228C269.325 323.358 270.91 320.857 271.651 318.06C271.827 318.388 272.003 318.716 272.186 319.031L272.195 319.029C273.283 321.38 275.608 322.92 278.196 323.01C280.855 322.815 283.123 321.025 283.928 318.49C284.723 315.828 284.316 312.954 282.807 310.616C284.117 310.914 285.473 310.853 286.754 310.462C288.288 309.98 289.526 308.855 290.167 307.385C290.756 305.628 290.296 303.691 288.977 302.385C286.342 299.69 282.967 297.84 279.278 297.061C275.541 296.166 271.632 296.277 267.94 297.381C267.987 294.503 268.133 291.614 267.988 288.737C267.802 285.226 267.104 281.758 266.663 278.268C265.782 271.298 265.221 264.256 264.892 257.24C264.624 252.147 264.727 247.046 265.21 241.965C270.871 252.135 278.289 261.226 287.126 268.809L287.119 268.822C286.995 270.45 286.608 272.051 285.979 273.557C285.5 274.713 284.917 275.83 284.496 277.007C283.204 280.011 282.823 283.33 283.399 286.544C284.2 289.453 286.804 292.522 290.14 291.634C293.586 290.71 293.178 286.441 292.931 283.718C292.798 282.294 292.607 280.879 292.37 279.478C292.441 279.607 292.516 279.745 292.588 279.873C294.373 283.104 296.855 287.497 300.96 287.808C303.009 287.92 304.932 286.757 305.778 284.887C306.657 282.865 306.464 280.529 305.257 278.691C304.979 278.234 304.661 277.81 304.303 277.419C305.378 277.742 306.49 277.931 307.604 277.999C309.488 278.133 311.321 277.413 312.613 276.048C313.829 274.636 314.019 272.613 313.087 271C311.066 267.319 305.951 267.453 302.342 267.65C297.831 267.904 293.148 268.82 288.702 267.637L288.659 267.63C288.547 267.595 288.441 267.548 288.329 267.514L288.326 267.504C284.166 263.872 280.278 259.951 276.685 255.753C277.489 256.051 278.318 256.24 279.167 256.332C281.713 256.385 284.233 255.789 286.485 254.611C291.313 252.698 295.361 249.204 297.952 244.701C298.083 244.416 298.069 244.087 297.901 243.817C297.737 243.556 297.434 243.4 297.123 243.409C292.808 243.58 288.565 244.607 284.649 246.43C280.921 248.051 277.487 250.276 274.489 253.038C271.066 248.614 268.086 243.865 265.59 238.859C265.699 238.096 265.817 237.33 265.945 236.561C267.341 230.003 268.275 223.361 268.74 216.677C269.16 209.694 267.724 202.73 264.584 196.475C268.343 197.787 272.002 199.354 275.542 201.183C280.194 203.635 284.634 206.439 289.027 209.318C294.007 212.576 298.91 215.939 303.645 219.538C305.849 221.299 308.164 222.933 310.578 224.404C312.591 225.569 314.662 226.604 316.712 227.696C316.727 227.712 316.745 227.736 316.76 227.751C311.848 232.555 309.489 239.391 310.409 246.197C310.513 248.035 311.279 249.761 312.568 251.067C313.872 252.105 315.639 252.348 317.182 251.701C319.15 250.867 320.607 249.135 321.09 247.048C322.2 249.15 324.036 250.776 326.251 251.623C328.78 252.602 331.663 251.971 333.546 250.021C335.337 247.787 335.455 244.654 333.84 242.3C333.598 241.861 333.326 241.423 333.056 240.993L333.047 240.996C335.347 241.543 337.738 241.555 340.047 241.026C343.224 240.462 345.704 237.947 346.219 234.757C346.426 231.18 342.922 229.715 340.09 228.773C336.652 227.61 333.119 226.751 329.528 226.214C325.551 225.578 321.494 225.545 317.51 226.115C315.726 225.16 313.915 224.244 312.153 223.262L312.151 223.252C310.011 222.037 307.97 220.659 306.035 219.135C301.837 215.89 297.522 212.813 293.093 209.885C286.262 205.117 279.048 200.917 271.525 197.333C282.286 197.168 293.041 197.712 303.73 198.966C303.703 206.764 308.626 213.721 315.993 216.284C316.254 216.342 316.535 216.272 316.75 216.091C316.959 215.923 317.075 215.653 317.069 215.382C316.196 209.037 312.791 203.311 307.629 199.516C310.481 199.956 313.311 200.484 316.136 201.095C319.895 201.902 323.605 202.967 327.225 204.284C329.416 209.286 332.698 213.746 336.831 217.326C338.934 219.372 341.708 220.576 344.64 220.728C347.368 220.783 349.753 218.885 350.301 216.21C350.445 213.727 349.757 211.267 348.348 209.21C350.324 208.526 352.023 207.232 353.224 205.521C354.29 203.642 354.203 201.323 352.993 199.537C351.988 197.856 350.514 196.508 348.741 195.681C349.301 194.966 349.76 194.191 350.123 193.367C350.637 192.352 350.96 191.247 351.061 190.112C351.1 188.279 350.261 186.545 348.805 185.444C347.197 184.311 345.26 183.76 343.3 183.862C340.1 184.262 337.144 185.767 334.943 188.112C333.155 189.98 331.762 192.197 330.864 194.63C329.762 197.28 328.493 199.852 327.043 202.33C320.2 200.014 313.136 198.396 305.954 197.514C297.572 196.421 289.138 195.798 280.684 195.648C276.229 195.54 271.767 195.536 267.313 195.589C267.037 195.485 266.764 195.36 266.479 195.26C257.311 191.94 247.772 189.417 239.837 183.476L239.849 183.482C235.971 180.599 232.768 176.923 230.44 172.694C228.084 168.159 226.017 163.481 224.247 158.688C221.133 150.846 218.397 142.883 216.036 134.769C223.356 145.571 230.651 156.612 240.49 165.272C241.663 166.311 242.886 167.315 244.145 168.277L244.139 168.289C243.915 175.786 247.572 182.866 253.812 187.024C255.241 188.103 257.067 188.529 258.825 188.177C260.394 187.644 261.588 186.35 261.98 184.737C262.448 182.918 262.141 180.983 261.127 179.397C262.39 179.71 263.696 179.807 264.998 179.672C269.042 181.086 273.232 182.068 277.481 182.606C284.178 183.492 290.993 182.883 297.422 180.82C297.516 180.861 297.607 180.892 297.71 180.93L297.722 180.936L297.725 180.946C301.16 182.979 304.228 185.576 306.807 188.633C309.37 191.229 312.825 194.966 316.831 194.682C318.753 194.622 320.433 193.395 321.099 191.593C321.561 189.786 321.087 187.864 319.823 186.48C318.758 185.304 317.458 184.375 316.001 183.741L316.089 183.733C318.245 183.486 320.184 182.277 321.356 180.444C322.402 178.693 322.357 176.502 321.252 174.793C318.697 171.212 313.482 172.582 310.021 173.743C309.428 173.944 308.838 174.153 308.238 174.366C308.823 173.885 309.398 173.407 309.964 172.902L309.967 172.911C311.329 171.766 312.592 170.501 313.744 169.14C314.758 168.046 315.244 166.565 315.065 165.095C314.717 163.598 313.597 162.41 312.122 161.973C310.518 161.547 308.798 161.734 307.324 162.501C304.519 164.129 302.388 166.694 301.281 169.74C300.644 171.128 300.135 172.566 299.737 174.039C299.215 175.815 298.395 177.484 297.309 178.986C287.781 181.982 277.547 181.898 268.069 178.748C270.455 177.578 271.927 175.103 271.82 172.436C271.488 169.7 269.433 167.487 266.724 166.96C266.157 166.798 265.576 166.661 264.987 166.557C266.899 165.296 268.517 163.623 269.72 161.669C271.526 159.036 271.522 155.558 269.715 152.921C267.379 150.181 263.923 151.482 261.248 152.886C254.89 156.242 249.39 161.011 245.151 166.811C244.535 166.341 243.925 165.859 243.331 165.362L243.321 165.365C237.806 160.661 232.859 155.329 228.563 149.475C223.616 142.98 219.161 136.125 214.518 129.411C213.968 127.382 213.437 125.348 212.933 123.304C212.656 122.189 210.972 122.74 211.245 123.846C211.732 125.834 212.258 127.82 212.79 129.794L212.784 129.806C212.788 129.916 212.824 130.026 212.877 130.13C214.986 137.9 217.437 145.57 220.23 153.14C214.828 150.615 208.955 149.212 202.99 149.032C200.295 148.956 196.474 148.836 195.071 151.684L195.08 151.681C194.083 154.469 195.163 157.582 197.67 159.154C199.58 160.504 201.822 161.312 204.15 161.506C203.999 161.635 203.837 161.758 203.686 161.887C201.733 163.273 200.732 165.637 201.086 168.002C201.711 170.361 203.745 172.096 206.179 172.336C208.595 172.552 210.983 171.735 212.756 170.074C212.758 171.277 213.086 172.457 213.683 173.499C214.475 174.833 215.842 175.72 217.382 175.883C218.959 175.913 220.433 175.116 221.28 173.783C223.127 170.995 224.123 167.732 224.173 164.388C224.186 164.019 224.181 163.657 224.176 163.294C225.175 165.715 226.22 168.121 227.342 170.482C227.851 171.563 228.393 172.623 228.976 173.65L228.966 173.653C223.472 176.863 218.813 181.321 215.371 186.674C211.755 192.397 208.838 198.532 206.667 204.944C205.455 208.135 204.21 211.316 202.707 214.387C201.134 217.522 199.391 220.57 197.469 223.503C193.547 229.597 189.274 235.51 184.829 241.235C182.354 244.426 179.581 247.42 177.211 250.689C175.278 253.363 173.7 256.266 172.033 259.108L172.008 259.126C167.426 254.051 160.733 251.414 153.922 252.001C152.036 252.02 150.234 252.74 148.849 254.003C147.741 255.31 147.452 257.122 148.101 258.704C148.884 260.638 150.515 262.097 152.526 262.656C150.394 263.674 148.708 265.418 147.773 267.58C146.713 270.014 147.163 272.833 148.922 274.818L148.924 274.813Z" fill="#F8F7B5" fill-opacity="0.5"/>
</svg>
